<?xml version="1.0" encoding="UTF-8" standalone="no"?>
<!-- Created with Inkscape (http://www.inkscape.org/) -->

<svg
   width="150.00015"
   height="149.99998"
   viewBox="0 0 39.68754 39.687496"
   version="1.1"
   id="svg17111"
   inkscape:version="1.2.2 (732a01da63, 2022-12-09)"
   sodipodi:docname="ArES_logo_2.svg"
   xml:space="preserve"
   xmlns:inkscape="http://www.inkscape.org/namespaces/inkscape"
   xmlns:sodipodi="http://sodipodi.sourceforge.net/DTD/sodipodi-0.dtd"
   xmlns="http://www.w3.org/2000/svg"
   xmlns:svg="http://www.w3.org/2000/svg"><sodipodi:namedview
     id="namedview17113"
     pagecolor="#333333"
     bordercolor="#999999"
     borderopacity="1"
     inkscape:showpageshadow="0"
     inkscape:pageopacity="0"
     inkscape:pagecheckerboard="0"
     inkscape:deskcolor="#d1d1d1"
     inkscape:document-units="px"
     showgrid="false"
     inkscape:zoom="2.1089995"
     inkscape:cx="-4.7415847"
     inkscape:cy="49.312481"
     inkscape:window-width="1920"
     inkscape:window-height="1017"
     inkscape:window-x="-8"
     inkscape:window-y="-8"
     inkscape:window-maximized="1"
     inkscape:current-layer="layer1" /><defs
     id="defs17108"><linearGradient
       id="linearGradient31469"
       inkscape:swatch="solid"><stop
         style="stop-color:#6098bb;stop-opacity:1;"
         offset="0"
         id="stop31467" /></linearGradient></defs><g
     inkscape:label="Camada 1"
     inkscape:groupmode="layer"
     id="layer1"
     transform="translate(-78.694607,-44.56513)"><path
       style="fill:#ffffff;fill-opacity:1;stroke-width:0.175949"
       d="m 100.01856,83.972939 c -0.999642,-0.33592 -1.814845,-0.815018 -2.700749,-1.587241 -0.644931,-0.56217 -0.644931,-0.56217 -1.784444,0.15109 -4.844885,3.032606 -10.421723,-0.478472 -11.228357,-7.069171 -0.160796,-1.313806 -0.248486,-1.598288 -0.523187,-1.697324 -0.181507,-0.06544 -0.738282,-0.411109 -1.237281,-0.768156 -5.696816,-4.076237 -4.919301,-13.786205 1.326099,-16.560933 0.378042,-0.16796 0.428764,-0.312768 0.520836,-1.486947 0.340324,-4.340087 3.840823,-7.947282 7.712214,-7.947282 1.088245,0 2.441098,0.313087 3.108936,0.719495 0.457809,0.278593 0.489876,0.268335 0.909457,-0.290894 0.239206,-0.318818 0.500631,-0.719504 0.580945,-0.890413 0.08031,-0.170906 0.505439,-0.474871 0.944719,-0.675473 0.43928,-0.2006 1.197741,-0.553287 1.685469,-0.78375 3.516743,-1.66174 8.216113,0.821353 9.575233,5.059432 0.28662,0.893779 0.28662,0.893779 1.24577,0.893779 4.51979,0 8.13546,5.722738 7.00828,11.092423 -0.139,0.662192 -0.24171,1.267017 -0.22824,1.34406 0.0134,0.07704 -0.027,0.278534 -0.0898,0.447765 -0.0717,0.193004 0.0678,0.658202 0.37419,1.248056 1.90087,3.658985 1.43546,8.395625 -1.12448,11.444206 -1.559,1.856581 -3.88184,2.831306 -6.19325,2.598856 -0.97433,-0.09798 -0.97433,-0.09798 -1.69987,1.077429 -1.90559,3.087123 -5.34512,4.634445 -8.18245,3.680993 z m 9.46085,-6.580923 c 0.74536,-0.452617 1.11768,-1.114632 1.24169,-2.207799 l 0.10346,-0.912041 H 99.333217 87.841875 l 0.103461,0.912041 c 0.124006,1.093167 0.49633,1.755182 1.241693,2.207799 0.848428,0.515201 19.443951,0.515201 20.292381,0 z m -8.49356,-5.229312 0.92709,-0.0026 v -3.854938 c 0,-3.854941 0,-3.854941 -0.4713,-4.416195 -0.45902,-0.546634 -0.51394,-0.561256 -2.108423,-0.561256 -1.594483,0 -1.649406,0.01456 -2.108425,0.561256 -0.471295,0.561254 -0.471295,0.561254 -0.471295,4.408428 v 3.847175 l 1.330169,0.06815 c 0.731591,0.03749 1.475276,0.04216 1.652632,0.01045 0.177357,-0.03177 0.739652,-0.05895 1.249552,-0.06039 z m 8.14024,-0.09096 c 0.0211,-0.0192 0.0435,-2.548985 0.0499,-5.621764 0.0147,-7.008623 0.10915,-6.770451 -2.68796,-6.770451 -1.48328,0 -1.55285,0.01946 -2.00781,0.561256 -0.4713,0.561256 -0.4713,0.561256 -0.4713,6.234181 v 5.672926 l 1.89448,0.05761 c 1.6229,0.04936 3.08841,-0.01148 3.22265,-0.133775 z M 94.657472,70.129223 c 0,-1.988622 -0.0098,-2.042533 -0.471294,-2.592115 -0.455737,-0.542729 -0.522618,-0.561256 -2.026006,-0.561256 -2.447166,0 -2.649854,0.238016 -2.657013,3.120137 l -0.0051,2.064092 h 2.579722 2.579719 z m -1.17857,-8.936639 c 0.781232,-1.279913 1.638084,-2.711347 1.904117,-3.180962 l 0.483699,-0.853846 1.630063,2.028912 c 0.896536,1.115901 1.726877,2.028911 1.845203,2.028911 0.118328,0 1.672526,-1.728076 3.453796,-3.84017 1.78126,-2.112093 3.2908,-3.840168 3.35454,-3.840168 0.0637,0 0.1159,0.524103 0.1159,1.164673 0,1.370712 0.19669,1.907461 0.69897,1.907461 0.67366,0 0.75212,-0.313037 0.75212,-3.000818 0,-3.279462 0.10909,-3.143451 -2.52122,-3.143451 -2.18861,0 -2.63822,0.147254 -2.63822,0.864038 0,0.636398 0.43246,0.864037 1.64148,0.864037 h 1.01775 l -2.93273,3.492527 -2.932729,3.492527 -1.67641,-2.095483 C 96.19255,55.227444 95.959148,55.0069 95.655518,55.172314 c -0.277346,0.15109 -4.706391,7.229456 -4.706391,7.521604 0,0.365633 0.402087,0.825782 0.721584,0.825782 0.310082,0 0.672361,-0.466246 1.808193,-2.327116 z"
       id="path49533" /></g></svg>
