<?xml version="1.0" encoding="UTF-8" standalone="no"?>
<!-- Created with Inkscape (http://www.inkscape.org/) -->

<svg
   width="48.075798"
   height="48.075794"
   viewBox="0 0 12.720053 12.720052"
   version="1.1"
   id="svg43077"
   xml:space="preserve"
   inkscape:version="1.2.2 (732a01da63, 2022-12-09)"
   sodipodi:docname="branch_closed.svg"
   xmlns:inkscape="http://www.inkscape.org/namespaces/inkscape"
   xmlns:sodipodi="http://sodipodi.sourceforge.net/DTD/sodipodi-0.dtd"
   xmlns="http://www.w3.org/2000/svg"
   xmlns:svg="http://www.w3.org/2000/svg"><sodipodi:namedview
     id="namedview43079"
     pagecolor="#ffffff"
     bordercolor="#999999"
     borderopacity="1"
     inkscape:showpageshadow="0"
     inkscape:pageopacity="0"
     inkscape:pagecheckerboard="0"
     inkscape:deskcolor="#d1d1d1"
     inkscape:document-units="px"
     showgrid="false"
     inkscape:zoom="4.1023005"
     inkscape:cx="-28.276817"
     inkscape:cy="27.057989"
     inkscape:window-width="1920"
     inkscape:window-height="1017"
     inkscape:window-x="-8"
     inkscape:window-y="-8"
     inkscape:window-maximized="1"
     inkscape:current-layer="layer1" /><defs
     id="defs43074" /><g
     inkscape:label="Camada 1"
     inkscape:groupmode="layer"
     id="layer1"
     transform="translate(-0.31245425,0.07452369)"><rect
       style="fill:#dcdcdc;fill-rule:evenodd;stroke:none;stroke-width:0.509112;stroke-linejoin:bevel;paint-order:stroke fill markers;fill-opacity:1"
       id="rect3889"
       width="12.720054"
       height="12.720053"
       x="0.31245425"
       y="-0.074523695" /><g
       id="g2021"
       transform="translate(112.25309,97.453944)"><path
         style="fill:#000000;fill-opacity:0;stroke:#000000;stroke-width:1.2799;stroke-linecap:round;stroke-linejoin:round;stroke-dasharray:none;stroke-dashoffset:0;paint-order:normal"
         d="M 32.918137,4.9217426 39.575731,4.878731"
         id="path1146-6" /><path
         style="fill:#000000;fill-opacity:0;stroke:#000000;stroke-width:1.2799;stroke-linecap:round;stroke-linejoin:round;stroke-dasharray:none;stroke-dashoffset:0;paint-order:normal"
         d="m 32.918137,7.5675761 6.657594,-0.043012"
         id="path1146-1-2" /><path
         style="fill:#000000;fill-opacity:0;stroke:#000000;stroke-width:1.2799;stroke-linecap:round;stroke-linejoin:round;stroke-dasharray:none;stroke-dashoffset:0;paint-order:normal"
         d="m 32.918137,10.213409 6.657594,-0.04301"
         id="path1146-3-3" /></g><path
       style="fill:#000000;stroke-width:0.020026"
       d="m 19.507603,-1.3480143 c -0.719341,-0.133714 -1.294705,-0.4867706 -1.797787,-1.1031641 -0.167767,-0.2055539 -0.165465,-0.2318308 0.04215,-0.4811323 0.446447,-0.5360808 0.979677,-0.876104 1.615452,-1.030121 0.07083,-0.01716 0.238812,-0.02668 0.47061,-0.02668 0.231799,0 0.399784,0.0095 0.470611,0.02668 0.654377,0.158523 1.192391,0.5089403 1.65908,1.0805862 0.109057,0.1335832 0.135313,0.194903 0.113237,0.2644588 -0.02143,0.067523 -0.286675,0.3752612 -0.470703,0.5461127 -0.275045,0.2553524 -0.654858,0.4922382 -0.961172,0.5994748 -0.284478,0.099592 -0.40237,0.1194253 -0.750975,0.1263391 -0.187243,0.00371 -0.362971,0.00256 -0.390506,-0.00255 z m 0.524696,-0.3906841 c 0.419661,-0.089113 0.756967,-0.5029437 0.756967,-0.9287 0,-0.4386129 -0.324743,-0.8357798 -0.759633,-0.9290471 -0.650844,-0.1395812 -1.26023,0.4698051 -1.120649,1.1206488 0.03028,0.1411755 0.08358,0.2558307 0.176272,0.3791988 0.220764,0.2938098 0.590622,0.4335837 0.947043,0.3578995 z m -0.314424,-0.436763 c -0.13887,-0.033808 -0.27013,-0.1419308 -0.341937,-0.2816641 -0.05012,-0.097524 -0.05058,-0.3260143 -8.52e-4,-0.4205458 0.05143,-0.097777 0.148171,-0.1960799 0.24266,-0.2465896 0.110274,-0.058948 0.327242,-0.058529 0.440572,8.495e-4 0.315028,0.165059 0.380398,0.5620848 0.133214,0.8090685 -0.129861,0.129755 -0.302825,0.18047 -0.473656,0.1388815 z"
       id="path317" /><path
       style="fill:#2a3f54;fill-opacity:1;stroke-width:0.0556035"
       d="M 6.2774964,9.1548127 V 8.5153702 H 6.6111197 6.9447426 V 9.1548127 9.7942544 H 6.6111197 6.2774964 Z M 4.1273626,9.3697057 3.8955529,9.2875558 4.1074706,8.6929483 c 0.1165679,-0.3270351 0.2333746,-0.594609 0.2596057,-0.594609 0.1520288,0 0.5781771,0.1648429 0.5597888,0.216544 -0.011936,0.03381 -0.107152,0.305389 -0.2113872,0.6035069 C 4.5098727,9.5064077 4.5109071,9.5056257 4.1273416,9.3697027 Z M 8.590672,8.8668312 C 8.481318,8.5402403 8.397771,8.2694412 8.405038,8.2650562 c 0.132111,-0.07977 0.562237,-0.1948925 0.594847,-0.159214 0.08808,0.096379 0.4025027,1.1433995 0.3559387,1.1852915 -0.058829,0.05293 -0.4000198,0.169497 -0.4961227,0.169497 -0.039699,0 -0.156512,-0.257797 -0.269024,-0.5938015 z M 1.9682137,8.3426582 c -0.1223233,-0.09329 -0.2192645,-0.203229 -0.2154185,-0.244305 0.0053,-0.055847 0.3904879,-0.6457767 0.6663735,-1.0203918 0.012201,-0.016418 0.3235072,0.1955796 0.486575,0.3312185 0.035992,0.029926 -0.6553399,1.1125783 -0.705362,1.1046444 -0.0053,-8.4e-4 -0.1098312,-0.07788 -0.2321811,-0.171165 z M 10.572747,7.9965869 c -0.191204,-0.2804361 -0.347599,-0.527448 -0.347525,-0.5489156 5.6e-5,-0.021458 0.111344,-0.1155424 0.247246,-0.2090558 l 0.247114,-0.1700248 0.371365,0.5326468 0.371367,0.5326467 -0.128352,0.09344 c -0.07061,0.05139 -0.192531,0.13522 -0.270967,0.186291 l -0.142608,0.09286 z M 5.5546505,7.85378 C 4.4012352,7.5989006 3.2026618,6.9634907 2.0794215,6.0114256 1.8347747,5.804054 1.5774897,5.573279 1.5076999,5.4985926 L 1.3808147,5.3627982 1.7746976,4.9912285 C 2.8784756,3.9499795 4.3541172,3.1282187 5.5824597,2.8707484 6.1764895,2.7462343 7.1749001,2.7452927 7.7510031,2.8686996 8.9995079,3.1361457 10.423727,3.9332399 11.567595,5.0047376 l 0.396552,0.3714621 -0.43846,0.3925079 C 10.386943,6.7881014 9.198589,7.4739418 8.0117864,7.7967012 7.3860328,7.9668797 6.1919922,7.9946173 5.5546585,7.8537784 Z"
       id="path331" /></g></svg>
