<?xml version="1.0" encoding="UTF-8" standalone="no"?>
<!-- Created with Inkscape (http://www.inkscape.org/) -->

<svg
   width="48.075798"
   height="48.075794"
   viewBox="0 0 12.720053 12.720052"
   version="1.1"
   id="svg43077"
   xml:space="preserve"
   inkscape:version="1.2.2 (732a01da63, 2022-12-09)"
   sodipodi:docname="branch_open.svg"
   xmlns:inkscape="http://www.inkscape.org/namespaces/inkscape"
   xmlns:sodipodi="http://sodipodi.sourceforge.net/DTD/sodipodi-0.dtd"
   xmlns="http://www.w3.org/2000/svg"
   xmlns:svg="http://www.w3.org/2000/svg"><sodipodi:namedview
     id="namedview43079"
     pagecolor="#ffffff"
     bordercolor="#999999"
     borderopacity="1"
     inkscape:showpageshadow="0"
     inkscape:pageopacity="0"
     inkscape:pagecheckerboard="0"
     inkscape:deskcolor="#d1d1d1"
     inkscape:document-units="px"
     showgrid="false"
     inkscape:zoom="4.1023005"
     inkscape:cx="-2.925188"
     inkscape:cy="26.814223"
     inkscape:window-width="1920"
     inkscape:window-height="1017"
     inkscape:window-x="-8"
     inkscape:window-y="-8"
     inkscape:window-maximized="1"
     inkscape:current-layer="layer1" /><defs
     id="defs43074" /><g
     inkscape:label="Camada 1"
     inkscape:groupmode="layer"
     id="layer1"
     transform="translate(-0.31245425,0.07452369)"><rect
       style="fill:#dcdcdc;fill-rule:evenodd;stroke:none;stroke-width:0.509112;stroke-linejoin:bevel;paint-order:stroke fill markers;fill-opacity:1"
       id="rect3889"
       width="12.720054"
       height="12.720053"
       x="0.31245425"
       y="-0.074523695" /><g
       id="g2021"
       transform="translate(112.25309,97.453944)"><path
         style="fill:#000000;fill-opacity:0;stroke:#000000;stroke-width:1.2799;stroke-linecap:round;stroke-linejoin:round;stroke-dasharray:none;stroke-dashoffset:0;paint-order:normal"
         d="M 32.918137,4.9217426 39.575731,4.878731"
         id="path1146-6" /><path
         style="fill:#000000;fill-opacity:0;stroke:#000000;stroke-width:1.2799;stroke-linecap:round;stroke-linejoin:round;stroke-dasharray:none;stroke-dashoffset:0;paint-order:normal"
         d="m 32.918137,7.5675761 6.657594,-0.043012"
         id="path1146-1-2" /><path
         style="fill:#000000;fill-opacity:0;stroke:#000000;stroke-width:1.2799;stroke-linecap:round;stroke-linejoin:round;stroke-dasharray:none;stroke-dashoffset:0;paint-order:normal"
         d="m 32.918137,10.213409 6.657594,-0.04301"
         id="path1146-3-3" /></g><path
       style="fill:#2a3f54;fill-opacity:1;stroke-width:0.0471136"
       d="M 5.8930879,9.3866937 C 4.2007491,9.0721155 2.8471342,8.2415055 1.6635714,6.7913636 1.2688789,6.3077726 1.2742946,6.245953 1.7627345,5.6594403 2.8130563,4.3982439 4.0675459,3.5982972 5.5632852,3.2359532 c 0.1666364,-0.040371 0.5618349,-0.062768 1.1071684,-0.062768 0.5453357,0 0.9405412,0.02235 1.1071703,0.062768 1.5395028,0.372945 2.8052481,1.197345 3.9031911,2.5422128 0.25657,0.314271 0.31834,0.4585334 0.266404,0.622172 -0.05041,0.1588562 -0.674438,0.8828484 -1.107387,1.2847977 C 10.192755,8.2858838 9.2991976,8.843187 8.5785564,9.0954743 7.9092867,9.3297772 7.6319308,9.3764366 6.8117945,9.3927029 6.3712822,9.4013886 5.9578603,9.39876 5.8930808,9.38676 Z M 7.1275001,8.4675609 C 8.1148044,8.2579116 8.9083587,7.2843237 8.9083587,6.2826792 8.9083587,5.2507882 8.144361,4.3164039 7.121228,4.096981 5.590037,3.768599 4.156381,5.2022557 4.4847626,6.733446 4.556,7.0655788 4.6813948,7.3353193 4.8994642,7.6255581 5.4188388,8.316782 6.2889756,8.6456174 7.1275001,8.4675609 Z M 6.3877787,7.440022 C 6.0610699,7.3604844 5.7522644,7.1061121 5.5833296,6.7773723 5.4654161,6.547935 5.4643339,6.0103834 5.5813252,5.7879862 5.7023207,5.5579538 5.9299159,5.326684 6.1522129,5.2078538 6.4116461,5.0691712 6.9220901,5.070157 7.188713,5.2098523 7.9298559,5.598174 8.0836467,6.5322263 7.5021154,7.113286 7.1966013,7.4185507 6.7896821,7.537864 6.3877811,7.440022 Z"
       id="path317" /><path
       style="fill:#2a3f54;stroke-width:0.0486531;fill-opacity:1"
       d="m 13.550458,-5.1350566 v -0.5595122 h 0.29192 0.29192 v 0.5595122 0.5595119 h -0.29192 -0.29192 z m -1.881367,0.1880314 -0.202834,-0.071881 0.185428,-0.5202816 c 0.101997,-0.2861557 0.204203,-0.5202829 0.227155,-0.5202829 0.133025,0 0.505905,0.1442376 0.489815,0.189476 -0.01044,0.029584 -0.09376,0.2672154 -0.184963,0.5280686 -0.179905,0.5145154 -0.179,0.5138311 -0.51462,0.3948985 z m 3.905396,-0.4400152 c -0.09568,-0.2857671 -0.168789,-0.5227163 -0.16243,-0.5265532 0.115597,-0.069799 0.491957,-0.1705309 0.520491,-0.1393122 0.07707,0.084332 0.35219,1.0004746 0.311447,1.0371301 -0.05148,0.046314 -0.350018,0.1483099 -0.434108,0.1483099 -0.03474,0 -0.136948,-0.2255724 -0.235396,-0.5195764 z M 9.7798353,-5.8456918 c -0.1070329,-0.081629 -0.1918565,-0.1778254 -0.1884912,-0.2137669 0.00464,-0.048866 0.3416769,-0.5650547 0.5830769,-0.8928429 0.01068,-0.014366 0.283069,0.1711322 0.425753,0.2898162 0.03149,0.026185 -0.573422,0.9735061 -0.6171917,0.9665639 -0.00464,-7.35e-4 -0.096102,-0.068145 -0.2031585,-0.1497694 z m 7.5289667,-0.3028124 c -0.167303,-0.2453816 -0.304149,-0.4615171 -0.304084,-0.4803012 4.9e-5,-0.018776 0.09743,-0.1010996 0.21634,-0.1829239 l 0.216225,-0.1487717 0.324944,0.466066 0.324946,0.4660659 -0.112308,0.08176 c -0.06178,0.044966 -0.168464,0.1183175 -0.237096,0.1630047 l -0.124782,0.081252 z M 12.917968,-6.2734603 C 11.908729,-6.4964798 10.859977,-7.0524635 9.8771421,-7.8855205 9.6630761,-8.0669707 9.4379517,-8.2688988 9.3768857,-8.3342494 L 9.2658611,-8.4530695 9.6105087,-8.778193 c 0.9658053,-0.911093 2.2569923,-1.630134 3.3317923,-1.85542 0.519776,-0.10895 1.393385,-0.109774 1.897475,-0.0018 1.092442,0.234015 2.338634,0.9314729 3.339518,1.8690334 l 0.346983,0.3250294 -0.383652,0.3434444 c -0.996401,0.8919697 -2.036211,1.4920801 -3.074663,1.7744946 -0.547535,0.1489062 -1.59232,0.1731766 -2.149987,0.049942 z"
       id="path331" /></g></svg>
