<?xml version="1.0" encoding="UTF-8" standalone="no"?>
<!-- Created with Inkscape (http://www.inkscape.org/) -->

<svg
   width="29.999655"
   height="25.110777"
   viewBox="0 0 7.9374076 6.6438923"
   version="1.1"
   id="svg43077"
   xml:space="preserve"
   inkscape:version="1.2.2 (732a01da63, 2022-12-09)"
   sodipodi:docname="folder_icon.svg"
   xmlns:inkscape="http://www.inkscape.org/namespaces/inkscape"
   xmlns:sodipodi="http://sodipodi.sourceforge.net/DTD/sodipodi-0.dtd"
   xmlns="http://www.w3.org/2000/svg"
   xmlns:svg="http://www.w3.org/2000/svg"><sodipodi:namedview
     id="namedview43079"
     pagecolor="#ffffff"
     bordercolor="#999999"
     borderopacity="1"
     inkscape:showpageshadow="0"
     inkscape:pageopacity="0"
     inkscape:pagecheckerboard="0"
     inkscape:deskcolor="#d1d1d1"
     inkscape:document-units="px"
     showgrid="false"
     inkscape:zoom="3.9999998"
     inkscape:cx="18.250001"
     inkscape:cy="-17.500001"
     inkscape:window-width="1920"
     inkscape:window-height="1017"
     inkscape:window-x="-8"
     inkscape:window-y="-8"
     inkscape:window-maximized="1"
     inkscape:current-layer="layer1" /><defs
     id="defs43074"><filter
       id="mask-powermask-path-effect8147_inverse"
       inkscape:label="filtermask-powermask-path-effect8147"
       style="color-interpolation-filters:sRGB"
       height="100"
       width="100"
       x="-50"
       y="-50"><feColorMatrix
         id="mask-powermask-path-effect8147_primitive1"
         values="1"
         type="saturate"
         result="fbSourceGraphic" /><feColorMatrix
         id="mask-powermask-path-effect8147_primitive2"
         values="-1 0 0 0 1 0 -1 0 0 1 0 0 -1 0 1 0 0 0 1 0 "
         in="fbSourceGraphic" /></filter><clipPath
       clipPathUnits="userSpaceOnUse"
       id="clipPath8341"><path
         style="fill:#008080;fill-opacity:1;stroke:#008080;stroke-width:0.264583;stroke-linecap:butt;stroke-linejoin:miter;stroke-dasharray:none"
         d="m 1.4707866,6.0199638 5.153454,-3.1582006 5.1876584,3.1582006 0.09121,3.5116457 -10.3867186,-0.07981 z"
         id="path8343" /></clipPath><clipPath
       clipPathUnits="userSpaceOnUse"
       id="clipPath8341-0"><path
         style="fill:#008080;fill-opacity:1;stroke:#008080;stroke-width:0.264583;stroke-linecap:butt;stroke-linejoin:miter;stroke-dasharray:none"
         d="m 1.4707866,6.0199638 5.153454,-3.1582006 5.1876584,3.1582006 0.09121,3.5116457 -10.3867186,-0.07981 z"
         id="path8343-8" /></clipPath></defs><g
     inkscape:label="Camada 1"
     inkscape:groupmode="layer"
     id="layer1"
     transform="translate(-121.11576,-99.63362)"><path
       style="fill:#394251;fill-opacity:1;stroke:none;stroke-width:0.0047923"
       d="m 121.11608,100.96217 h 1.96486 0.64611 c 0.10561,0 0.2182,0.0131 0.32305,-0.001 0.25592,-0.0355 0.4076,-0.25856 0.57972,-0.46039 l 0.12833,-0.1505 c 0.0111,-0.0131 0.0385,-0.0355 0.0338,-0.0571 -0.004,-0.0216 -0.0299,-0.042 -0.0427,-0.0571 l -0.10622,-0.12455 c -0.13854,-0.162474 -0.27298,-0.367264 -0.46466,-0.442854 -0.0999,-0.0394 -0.20145,-0.0346 -0.30535,-0.0346 h -0.38943 -1.38956 -0.57087 c -0.1084,0 -0.21586,-0.011 -0.30536,0.0751 -0.10901,0.10482 -0.10178,0.25304 -0.10178,0.402384 v 0.85111 m 0,0.10898 v 3.81958 0.98085 0.24391 c 0,0.0415 -0.004,0.0847 0.0194,0.11926 0.0334,0.0491 0.0831,0.0416 0.13102,0.0416 h 0.30535 1.28778 4.60238 1.15059 0.28323 c 0.0434,0 0.0899,0.008 0.12346,-0.0316 0.0545,-0.064 0.027,-0.23177 0.027,-0.31605 v -0.86147 -3.45112 -0.87186 c 0,-0.16367 -0.01,-0.32371 -0.15046,-0.40864 -0.0992,-0.0598 -0.2238,-0.0377 -0.3319,-0.0377 h -0.65939 -2.07992 -0.61512 -0.18144 c -0.0252,0 -0.0601,-0.007 -0.0841,0.003 -0.0257,0.0112 -0.0474,0.0473 -0.0664,0.0695 l -0.13276,0.15569 c -0.17363,0.20362 -0.34145,0.46113 -0.593,0.52714 -0.12176,0.032 -0.25209,0.0178 -0.37615,0.0178 h -0.63283 z"
       id="path14280" /></g></svg>
