<?xml version="1.0" encoding="UTF-8" standalone="no"?>
<!-- Created with Inkscape (http://www.inkscape.org/) -->

<svg
   width="1122.52"
   height="793.70099"
   viewBox="0 0 297.00005 210.00003"
   version="1.1"
   id="svg43077"
   xml:space="preserve"
   inkscape:version="1.2.2 (732a01da63, 2022-12-09)"
   sodipodi:docname="icon_settings.svg"
   xmlns:inkscape="http://www.inkscape.org/namespaces/inkscape"
   xmlns:sodipodi="http://sodipodi.sourceforge.net/DTD/sodipodi-0.dtd"
   xmlns="http://www.w3.org/2000/svg"
   xmlns:svg="http://www.w3.org/2000/svg"><sodipodi:namedview
     id="namedview43079"
     pagecolor="#ffffff"
     bordercolor="#999999"
     borderopacity="1"
     inkscape:showpageshadow="0"
     inkscape:pageopacity="0"
     inkscape:pagecheckerboard="0"
     inkscape:deskcolor="#d1d1d1"
     inkscape:document-units="px"
     showgrid="false"
     inkscape:zoom="7.9999996"
     inkscape:cx="18.625001"
     inkscape:cy="124.25001"
     inkscape:window-width="1920"
     inkscape:window-height="1017"
     inkscape:window-x="-8"
     inkscape:window-y="-8"
     inkscape:window-maximized="1"
     inkscape:current-layer="layer1" /><defs
     id="defs43074"><filter
       id="mask-powermask-path-effect8147_inverse"
       inkscape:label="filtermask-powermask-path-effect8147"
       style="color-interpolation-filters:sRGB"
       height="100"
       width="100"
       x="-50"
       y="-50"><feColorMatrix
         id="mask-powermask-path-effect8147_primitive1"
         values="1"
         type="saturate"
         result="fbSourceGraphic" /><feColorMatrix
         id="mask-powermask-path-effect8147_primitive2"
         values="-1 0 0 0 1 0 -1 0 0 1 0 0 -1 0 1 0 0 0 1 0 "
         in="fbSourceGraphic" /></filter><clipPath
       clipPathUnits="userSpaceOnUse"
       id="clipPath8341"><path
         style="fill:#008080;fill-opacity:1;stroke:#008080;stroke-width:0.264583;stroke-linecap:butt;stroke-linejoin:miter;stroke-dasharray:none"
         d="m 1.4707866,6.0199638 5.153454,-3.1582006 5.1876584,3.1582006 0.09121,3.5116457 -10.3867186,-0.07981 z"
         id="path8343" /></clipPath><clipPath
       clipPathUnits="userSpaceOnUse"
       id="clipPath8341-0"><path
         style="fill:#008080;fill-opacity:1;stroke:#008080;stroke-width:0.264583;stroke-linecap:butt;stroke-linejoin:miter;stroke-dasharray:none"
         d="m 1.4707866,6.0199638 5.153454,-3.1582006 5.1876584,3.1582006 0.09121,3.5116457 -10.3867186,-0.07981 z"
         id="path8343-8" /></clipPath></defs><g
     inkscape:label="Camada 1"
     inkscape:groupmode="layer"
     id="layer1"><rect
       style="fill:#000000;fill-opacity:0;stroke:#000000;stroke-width:0.225479"
       id="rect163"
       width="13.003686"
       height="10.357853"
       x="0.1127395"
       y="0.1127395"
       inkscape:label="rect163" /><rect
       style="fill:#000000;fill-opacity:1;stroke:#000000;stroke-width:0.169339;stroke-linecap:round;stroke-linejoin:round;stroke-dasharray:none"
       id="rect1922"
       width="1.1535772"
       height="1.1535772"
       x="6.1039395"
       y="-2.5611632"
       transform="scale(1,-1)" /><rect
       style="fill:#000000;fill-opacity:1;stroke:#000000;stroke-width:0.169339;stroke-linecap:round;stroke-linejoin:round;stroke-dasharray:none"
       id="rect1922-0"
       width="1.1535772"
       height="1.1535772"
       x="6.1039395"
       y="8.0221682" /><rect
       style="fill:#000000;fill-opacity:1;stroke:#000000;stroke-width:0.169339;stroke-linecap:round;stroke-linejoin:round;stroke-dasharray:none"
       id="rect1922-0-0"
       width="1.1535772"
       height="1.1535772"
       x="9.3450851"
       y="-5.8684545"
       transform="scale(1,-1)" /><rect
       style="fill:#000000;fill-opacity:1;stroke:#000000;stroke-width:0.169339;stroke-linecap:round;stroke-linejoin:round;stroke-dasharray:none"
       id="rect1922-0-0-7"
       width="1.1535772"
       height="1.1535772"
       x="-3.8840797"
       y="-5.8684545"
       transform="scale(-1)" /><rect
       style="fill:#000000;fill-opacity:1;stroke:#000000;stroke-width:0.169339;stroke-linecap:round;stroke-linejoin:round;stroke-dasharray:none"
       id="rect1922-0-0-7-3"
       width="1.1535772"
       height="1.1535772"
       x="-5.5918746"
       y="0.35865462"
       transform="rotate(-135)" /><rect
       style="fill:#000000;fill-opacity:1;stroke:#000000;stroke-width:0.169339;stroke-linecap:round;stroke-linejoin:round;stroke-dasharray:none"
       id="rect1922-0-0-7-3-7"
       width="1.1535772"
       height="1.1535772"
       x="-8.9594698"
       y="3.7262504"
       transform="rotate(-135)" /><rect
       style="fill:#000000;fill-opacity:1;stroke:#000000;stroke-width:0.169339;stroke-linecap:round;stroke-linejoin:round;stroke-dasharray:none"
       id="rect1922-0-0-7-3-75"
       width="1.1535772"
       height="1.1535772"
       x="-8.9594698"
       y="-3.0089409"
       transform="rotate(-135)" /><rect
       style="fill:#000000;fill-opacity:1;stroke:#000000;stroke-width:0.169339;stroke-linecap:round;stroke-linejoin:round;stroke-dasharray:none"
       id="rect1922-0-0-7-3-8"
       width="1.1535772"
       height="1.1535772"
       x="-12.327066"
       y="0.35865441"
       transform="rotate(-135)" /><path
       id="path170"
       style="fill:#000000;fill-opacity:1;stroke:#000000;stroke-width:0;stroke-dasharray:none"
       d="M 6.6145825 1.9843748 A 3.3072906 3.3072906 0 0 0 3.3072913 5.291666 A 3.3072906 3.3072906 0 0 0 6.6145825 8.5989573 A 3.3072906 3.3072906 0 0 0 9.9218738 5.291666 A 3.3072906 3.3072906 0 0 0 6.6145825 1.9843748 z M 6.6145825 3.3072913 A 1.9843744 1.9843744 0 0 1 8.5989573 5.291666 A 1.9843744 1.9843744 0 0 1 6.6145825 7.2760408 A 1.9843744 1.9843744 0 0 1 4.6302078 5.291666 A 1.9843744 1.9843744 0 0 1 6.6145825 3.3072913 z " /><circle
       style="fill:#008080;fill-opacity:1;stroke:#000000;stroke-width:0;stroke-dasharray:none"
       id="path170-5-6"
       cx="6.1680984"
       cy="13.62604"
       r="1.9843744" /><circle
       style="fill:#000000;fill-opacity:1;stroke:#000000;stroke-width:0;stroke-dasharray:none"
       id="path170-1"
       cx="6.2673173"
       cy="19.182291"
       r="3.3072906" /><rect
       style="fill:#008080;fill-opacity:1;stroke:#000000;stroke-width:0.169339;stroke-linecap:round;stroke-linejoin:round;stroke-dasharray:none"
       id="rect1922-0-0-1"
       width="1.1535772"
       height="1.1535772"
       x="10.648531"
       y="-14.164103"
       transform="scale(1,-1)" /><rect
       style="fill:#008080;fill-opacity:1;stroke:#000000;stroke-width:0.169339;stroke-linecap:round;stroke-linejoin:round;stroke-dasharray:none"
       id="rect1922-0-0-7-3-8-0"
       width="1.1535772"
       height="1.1535772"
       x="-19.891371"
       y="-3.8179343"
       transform="rotate(-135)" /><g
       id="g2270"
       transform="translate(136.39534,70.802622)"><rect
         style="fill:#000000;fill-opacity:1;stroke:#000000;stroke-width:0.169339;stroke-linecap:round;stroke-linejoin:round;stroke-dasharray:none"
         id="rect1922-9"
         width="1.1535772"
         height="1.1535772"
         x="11.594044"
         y="-31.46689"
         transform="scale(1,-1)" /><rect
         style="fill:#000000;fill-opacity:1;stroke:#000000;stroke-width:0.169339;stroke-linecap:round;stroke-linejoin:round;stroke-dasharray:none"
         id="rect1922-0-5"
         width="1.1535772"
         height="1.1535772"
         x="11.594044"
         y="36.927895" /><rect
         style="fill:#000000;fill-opacity:1;stroke:#000000;stroke-width:0.169339;stroke-linecap:round;stroke-linejoin:round;stroke-dasharray:none"
         id="rect1922-0-0-0"
         width="1.1535772"
         height="1.1535772"
         x="14.83519"
         y="-34.774181"
         transform="scale(1,-1)" /><rect
         style="fill:#000000;fill-opacity:1;stroke:#000000;stroke-width:0.169339;stroke-linecap:round;stroke-linejoin:round;stroke-dasharray:none"
         id="rect1922-0-0-7-8"
         width="1.1535772"
         height="1.1535772"
         x="-9.3741837"
         y="-34.774181"
         transform="scale(-1)" /><rect
         style="fill:#000000;fill-opacity:1;stroke:#000000;stroke-width:0.169339;stroke-linecap:round;stroke-linejoin:round;stroke-dasharray:none"
         id="rect1922-0-0-7-3-2"
         width="1.1535772"
         height="1.1535772"
         x="-29.913401"
         y="-16.198692"
         transform="rotate(-135)" /><rect
         style="fill:#000000;fill-opacity:1;stroke:#000000;stroke-width:0.169339;stroke-linecap:round;stroke-linejoin:round;stroke-dasharray:none"
         id="rect1922-0-0-7-3-7-8"
         width="1.1535772"
         height="1.1535772"
         x="-33.280994"
         y="-12.831096"
         transform="rotate(-135)" /><rect
         style="fill:#000000;fill-opacity:1;stroke:#000000;stroke-width:0.169339;stroke-linecap:round;stroke-linejoin:round;stroke-dasharray:none"
         id="rect1922-0-0-7-3-75-2"
         width="1.1535772"
         height="1.1535772"
         x="-33.280994"
         y="-19.566286"
         transform="rotate(-135)" /><rect
         style="fill:#000000;fill-opacity:1;stroke:#000000;stroke-width:0.169339;stroke-linecap:round;stroke-linejoin:round;stroke-dasharray:none"
         id="rect1922-0-0-7-3-8-7"
         width="1.1535772"
         height="1.1535772"
         x="-36.648594"
         y="-16.198692"
         transform="rotate(-135)" /><path
         id="path170-0"
         style="fill:#000000;fill-opacity:1;stroke:#000000;stroke-width:0;stroke-dasharray:none"
         d="m 12.104687,30.890103 a 3.3072906,3.3072906 0 0 0 -3.3072915,3.307291 3.3072906,3.3072906 0 0 0 3.3072915,3.307291 3.3072906,3.3072906 0 0 0 3.307291,-3.307291 3.3072906,3.3072906 0 0 0 -3.307291,-3.307291 z m 0,1.322916 a 1.9843744,1.9843744 0 0 1 1.984375,1.984375 1.9843744,1.9843744 0 0 1 -1.984375,1.984375 1.9843744,1.9843744 0 0 1 -1.984375,-1.984375 1.9843744,1.9843744 0 0 1 1.984375,-1.984375 z" /></g></g></svg>
