<?xml version="1.0" encoding="UTF-8" standalone="no"?>
<!-- Created with Inkscape (http://www.inkscape.org/) -->

<svg
   width="44.271782"
   height="50"
   viewBox="0 0 11.713574 13.229165"
   version="1.1"
   id="svg43077"
   xml:space="preserve"
   inkscape:version="1.2.2 (732a01da63, 2022-12-09)"
   sodipodi:docname="icon_xls_file.svg"
   xmlns:inkscape="http://www.inkscape.org/namespaces/inkscape"
   xmlns:sodipodi="http://sodipodi.sourceforge.net/DTD/sodipodi-0.dtd"
   xmlns="http://www.w3.org/2000/svg"
   xmlns:svg="http://www.w3.org/2000/svg"><sodipodi:namedview
     id="namedview43079"
     pagecolor="#ffffff"
     bordercolor="#999999"
     borderopacity="1"
     inkscape:showpageshadow="0"
     inkscape:pageopacity="0"
     inkscape:pagecheckerboard="0"
     inkscape:deskcolor="#d1d1d1"
     inkscape:document-units="px"
     showgrid="false"
     inkscape:zoom="16"
     inkscape:cx="7.1562498"
     inkscape:cy="16.3125"
     inkscape:window-width="1920"
     inkscape:window-height="1017"
     inkscape:window-x="-8"
     inkscape:window-y="-8"
     inkscape:window-maximized="1"
     inkscape:current-layer="layer1" /><defs
     id="defs43074"><filter
       id="mask-powermask-path-effect8147_inverse"
       inkscape:label="filtermask-powermask-path-effect8147"
       style="color-interpolation-filters:sRGB"
       height="100"
       width="100"
       x="-50"
       y="-50"><feColorMatrix
         id="mask-powermask-path-effect8147_primitive1"
         values="1"
         type="saturate"
         result="fbSourceGraphic" /><feColorMatrix
         id="mask-powermask-path-effect8147_primitive2"
         values="-1 0 0 0 1 0 -1 0 0 1 0 0 -1 0 1 0 0 0 1 0 "
         in="fbSourceGraphic" /></filter><clipPath
       clipPathUnits="userSpaceOnUse"
       id="clipPath8341"><path
         style="fill:#008080;fill-opacity:1;stroke:#008080;stroke-width:0.264583;stroke-linecap:butt;stroke-linejoin:miter;stroke-dasharray:none"
         d="m 1.4707866,6.0199638 5.153454,-3.1582006 5.1876584,3.1582006 0.09121,3.5116457 -10.3867186,-0.07981 z"
         id="path8343" /></clipPath><clipPath
       clipPathUnits="userSpaceOnUse"
       id="clipPath8341-0"><path
         style="fill:#008080;fill-opacity:1;stroke:#008080;stroke-width:0.264583;stroke-linecap:butt;stroke-linejoin:miter;stroke-dasharray:none"
         d="m 1.4707866,6.0199638 5.153454,-3.1582006 5.1876584,3.1582006 0.09121,3.5116457 -10.3867186,-0.07981 z"
         id="path8343-8" /></clipPath><clipPath
       clipPathUnits="userSpaceOnUse"
       id="clipPath44911"><path
         style="fill:#398e3d;fill-opacity:1;stroke:#398e3d;stroke-width:1.32292;stroke-linecap:round;stroke-linejoin:round;stroke-dasharray:none;stroke-opacity:1;paint-order:stroke fill markers"
         d="m -141.81666,132.02708 c -1.32292,52.91667 -11.90625,55.03333 -11.90625,55.03333 l 0.52916,52.12292 11.1125,0.52917 c 0,0 -0.26458,16.13958 0.79375,17.4625 1.05834,1.32291 89.429167,0.26458 89.429167,0.26458 l 1.852083,-17.72708 10.583333,-0.52917 0.264584,-53.44583 -12.170834,-0.26459 v -35.71875 l -19.579166,-20.37291 -72.760417,1.85208"
         id="path44913" /></clipPath></defs><g
     inkscape:label="Camada 1"
     inkscape:groupmode="layer"
     id="layer1"
     transform="translate(-144.44924,-100.68787)"><rect
       style="fill:#000000;fill-opacity:0;stroke:#000000;stroke-width:0.225479"
       id="rect163"
       width="13.003686"
       height="10.357853"
       x="0.1127395"
       y="0.1127395"
       inkscape:label="rect163" /><path
       id="rect11930-8"
       style="fill:#000000;fill-opacity:1;stroke:#000000;stroke-width:0;stroke-linecap:round;stroke-linejoin:round;stroke-dasharray:none;stroke-opacity:1;paint-order:stroke fill markers"
       inkscape:transform-center-y="0.22378482"
       d="M 2.7419512,2.0184812 C 2.5030233,2.0546827 2.0965985,2.167046 2.0081459,2.5145749 v 5.6032749 c 0.03959,0.1258096 0.1816391,0.3777046 0.6888468,0.4470011 h 7.6770503 c 0.229846,-0.028761 0.800036,-0.1433527 0.879016,-0.5777425 0.0056,-0.030941 0.01085,-0.077126 0.0155,-0.1338419 V 2.4613482 C 11.202576,2.3039289 10.988915,2.0834789 10.318749,2.0184812 Z M 5.9247022,2.617411 H 7.0398795 V 3.7325883 H 5.9247022 Z m 1.5874999,0 H 8.6273793 V 3.7325883 H 7.5122021 Z m 1.5874998,0 H 10.214879 V 3.7325883 H 9.0997019 Z M 5.8316847,4.1118932 H 7.1328971 V 4.883939 H 5.8316847 Z m 1.5874998,0 H 8.7203969 V 4.883939 H 7.4191845 Z m 1.5874998,0 H 10.307897 V 4.883939 H 9.0066843 Z m -6.0807651,0.00465 h 2.6148272 v 0.762745 H 2.9259192 Z M 5.8316847,5.1702264 H 7.1328971 V 5.9422722 H 5.8316847 Z m 1.5874998,0 H 8.7203969 V 5.9422722 H 7.4191845 Z m 1.5874998,0 H 10.307897 V 5.9422722 H 9.0066843 Z m -6.0807651,0.00465 h 2.6148272 v 0.762745 H 2.9259192 Z M 5.8316847,6.2285596 H 7.1328971 V 7.0006054 H 5.8316847 Z m 1.5874998,0 H 8.7203969 V 7.0006054 H 7.4191845 Z m 1.5874998,0 H 10.307897 V 7.0006054 H 9.0066843 Z m -6.0807651,0.00465 h 2.6148272 v 0.762745 H 2.9259192 Z M 5.8316847,7.2868928 H 7.1328971 V 8.0589386 H 5.8316847 Z m 1.5874998,0 H 8.7203969 V 8.0589386 H 7.4191845 Z m 1.5874998,0 H 10.307897 V 8.0589386 H 9.0066843 Z m -6.0807651,0.00465 h 2.6148272 v 0.762745 H 2.9259192 Z" /><rect
       style="fill:#000000;fill-opacity:1;stroke:#000000;stroke-width:0.234197;stroke-linecap:round;stroke-linejoin:round;stroke-dasharray:none;stroke-opacity:1;paint-order:stroke fill markers"
       id="rect11930"
       width="9.0262184"
       height="6.3803854"
       x="1.4473312"
       y="11.965219" /><rect
       style="fill:#008080;fill-opacity:1;stroke:#008080;stroke-width:0.0306234;stroke-linecap:round;stroke-linejoin:round;stroke-dasharray:none;stroke-opacity:1;paint-order:stroke fill markers"
       id="rect11983-8"
       width="2.6152096"
       height="0.76312649"
       x="11.475076"
       y="11.987705" /><rect
       style="fill:#008080;fill-opacity:1;stroke:#008080;stroke-width:0.0217265;stroke-linecap:round;stroke-linejoin:round;stroke-dasharray:none;stroke-opacity:1;paint-order:stroke fill markers"
       id="rect11983-2-9"
       width="1.30119"
       height="0.77202344"
       x="11.5037"
       y="12.892763" /><rect
       style="fill:#008080;fill-opacity:1;stroke:#008080;stroke-width:0.207988;stroke-linecap:round;stroke-linejoin:bevel;stroke-dasharray:none;stroke-opacity:1;paint-order:normal"
       id="rect11983-2-9-2-34"
       width="1.1149284"
       height="1.1149284"
       x="11.828341"
       y="14.044227" /><text
       xml:space="preserve"
       style="font-size:1.07041px;fill:#000000;fill-opacity:1;stroke:#000000;stroke-width:0.089201;stroke-linecap:round;stroke-linejoin:bevel;stroke-dasharray:none;stroke-opacity:1;paint-order:normal"
       x="7.703927"
       y="3.6009674"
       id="text13359-1"><tspan
         sodipodi:role="line"
         id="tspan13357-4"
         style="fill:#000000;stroke:#000000;stroke-width:0.089201"
         x="7.703927"
         y="3.6009674">B</tspan><tspan
         sodipodi:role="line"
         style="fill:#000000;stroke:#000000;stroke-width:0.089201"
         x="7.703927"
         y="4.9389801"
         id="tspan13636" /></text><text
       xml:space="preserve"
       style="font-size:1.07041px;fill:#000000;fill-opacity:1;stroke:#000000;stroke-width:0.089201;stroke-linecap:round;stroke-linejoin:bevel;stroke-dasharray:none;stroke-opacity:1;paint-order:normal"
       x="9.2914267"
       y="3.6009674"
       id="text13359-3"><tspan
         sodipodi:role="line"
         id="tspan13357-26"
         style="fill:#000000;stroke:#000000;stroke-width:0.089201"
         x="9.2914267"
         y="3.6009674">C</tspan></text><text
       xml:space="preserve"
       style="font-size:1.07041px;fill:#000000;fill-opacity:1;stroke:#000000;stroke-width:0.089201;stroke-linecap:round;stroke-linejoin:bevel;stroke-dasharray:none;stroke-opacity:1;paint-order:normal"
       x="6.1164274"
       y="3.6009674"
       id="text13359"><tspan
         sodipodi:role="line"
         id="tspan13357"
         style="fill:#000000;stroke:#000000;stroke-width:0.089201"
         x="6.1164274"
         y="3.6009674">A</tspan></text><text
       xml:space="preserve"
       style="font-size:1.07041px;fill:#000000;fill-opacity:1;stroke:#000000;stroke-width:0.089201;stroke-linecap:round;stroke-linejoin:bevel;stroke-dasharray:none;stroke-opacity:1;paint-order:normal"
       x="11.787374"
       y="16.501629"
       id="text13359-5"><tspan
         sodipodi:role="line"
         id="tspan13357-2"
         style="fill:#000000;stroke:#000000;stroke-width:0.089201"
         x="11.787374"
         y="16.501629">A</tspan></text><g
       id="g17147"
       transform="translate(3.0152243,5.4688563)"><path
         id="rect11930-8-8"
         style="fill:#000000;fill-opacity:1;stroke:#000000;stroke-width:0;stroke-linecap:round;stroke-linejoin:round;stroke-dasharray:none;stroke-opacity:1;paint-order:stroke fill markers"
         inkscape:transform-center-y="0.22378482"
         d="m 3.3298977,21.609605 c -0.2389278,0.0362 -0.6453527,0.148565 -0.7338052,0.496094 v 5.603275 c 0.03959,0.125809 0.1816391,0.377704 0.6888468,0.447001 H 10.96199 c 0.229846,-0.02876 0.800036,-0.143353 0.879016,-0.577743 0.0056,-0.03094 0.01085,-0.07713 0.0155,-0.133842 v -5.391918 c -0.06598,-0.157419 -0.279644,-0.377869 -0.94981,-0.442867 z m 3.182751,0.59893 H 7.627826 v 1.115177 H 6.5126487 Z m 1.5875,0 h 1.1151771 v 1.115177 H 8.1001487 Z m 1.5874997,0 h 1.1151776 v 1.115177 H 9.6876484 Z m -3.2680172,1.494482 h 1.3012124 v 0.772046 H 6.4196312 Z m 1.5874999,0 h 1.3012124 v 0.772046 H 8.0071311 Z m 1.5874998,0 h 1.3012131 v 0.772046 H 9.5946309 Z m -6.0807651,0.0047 h 2.6148271 v 0.762745 H 3.5138658 Z M 6.4196312,24.7614 h 1.3012124 v 0.772046 H 6.4196312 Z m 1.5874999,0 h 1.3012124 v 0.772046 H 8.0071311 Z m 1.5874998,0 h 1.3012131 v 0.772046 H 9.5946309 Z M 3.5138658,24.766 h 2.6148271 v 0.762745 H 3.5138658 Z m 2.9057654,1.053684 h 1.3012124 v 0.772045 H 6.4196312 Z m 1.5874999,0 h 1.3012124 v 0.772045 H 8.0071311 Z m 1.5874998,0 h 1.3012131 v 0.772045 H 9.5946309 Z m -6.0807651,0.0047 h 2.6148271 v 0.762745 H 3.5138658 Z m 2.9057654,1.053683 h 1.3012124 v 0.772046 H 6.4196312 Z m 1.5874999,0 h 1.3012124 v 0.772046 H 8.0071311 Z m 1.5874998,0 h 1.3012131 v 0.772046 H 9.5946309 Z m -6.0807651,0.0047 h 2.6148271 v 0.762745 H 3.5138658 Z" /><text
         xml:space="preserve"
         style="font-size:1.07041px;fill:#000000;fill-opacity:1;stroke:#000000;stroke-width:0.089201;stroke-linecap:round;stroke-linejoin:bevel;stroke-dasharray:none;stroke-opacity:1;paint-order:normal"
         x="8.2918739"
         y="23.192091"
         id="text13359-1-89"><tspan
           sodipodi:role="line"
           id="tspan13357-4-4"
           style="fill:#000000;stroke:#000000;stroke-width:0.089201"
           x="8.2918739"
           y="23.192091">B</tspan><tspan
           sodipodi:role="line"
           style="fill:#000000;stroke:#000000;stroke-width:0.089201"
           x="8.2918739"
           y="24.530104"
           id="tspan13636-5" /></text><text
         xml:space="preserve"
         style="font-size:1.07041px;fill:#000000;fill-opacity:1;stroke:#000000;stroke-width:0.089201;stroke-linecap:round;stroke-linejoin:bevel;stroke-dasharray:none;stroke-opacity:1;paint-order:normal"
         x="9.8793736"
         y="23.192091"
         id="text13359-3-8"><tspan
           sodipodi:role="line"
           id="tspan13357-26-6"
           style="fill:#000000;stroke:#000000;stroke-width:0.089201"
           x="9.8793736"
           y="23.192091">C</tspan></text><text
         xml:space="preserve"
         style="font-size:1.07041px;fill:#000000;fill-opacity:1;stroke:#000000;stroke-width:0.089201;stroke-linecap:round;stroke-linejoin:bevel;stroke-dasharray:none;stroke-opacity:1;paint-order:normal"
         x="6.7043738"
         y="23.192091"
         id="text13359-0"><tspan
           sodipodi:role="line"
           id="tspan13357-7"
           style="fill:#000000;stroke:#000000;stroke-width:0.089201"
           x="6.7043738"
           y="23.192091">A</tspan></text></g><g
       id="g62762"
       transform="matrix(1.6476804,0,0,1.6476804,-94.374353,-65.704005)"><path
         id="rect65878"
         style="fill:none;fill-opacity:1;stroke:#000000;stroke-width:0.264583;stroke-linecap:round;stroke-linejoin:round;stroke-dasharray:none;stroke-opacity:1;paint-order:stroke fill markers"
         d="m 145.6471,101.11782 v 7.76438 h 5.61257 v -6.07714 l -1.68723,-1.68724 z" /><path
         id="rect66371"
         style="fill:#398e3d;fill-opacity:1;stroke:none;stroke-width:0.264583;stroke-linecap:round;stroke-linejoin:round;stroke-dasharray:none;stroke-opacity:1;paint-order:stroke fill markers"
         d="m 144.94534,104.15846 v 3.32073 h 7.10913 v -3.32073 z m 5.06584,0.98289 c 0.0982,0 0.19495,0.01 0.29042,0.0289 0.0961,0.0187 0.17898,0.0426 0.24908,0.0713 v 0.34365 h -0.0408 c -0.0601,-0.0481 -0.13423,-0.0884 -0.22169,-0.12041 -0.0868,-0.0327 -0.17533,-0.0491 -0.26614,-0.0491 -0.032,0 -0.0641,0.003 -0.0961,0.007 -0.0314,0.004 -0.0621,0.0118 -0.0915,0.0238 -0.026,0.01 -0.048,0.0258 -0.0667,0.0465 -0.0187,0.02 -0.0284,0.0427 -0.0284,0.0687 0,0.0394 0.0154,0.0701 0.0455,0.0915 0.03,0.0207 0.0866,0.0395 0.17001,0.0569 0.0548,0.0113 0.10703,0.0224 0.1571,0.0331 0.0507,0.0107 0.10521,0.0252 0.1633,0.0439 0.11417,0.0374 0.19862,0.0887 0.2527,0.15348 0.0547,0.0641 0.0816,0.1473 0.0816,0.25012 0,0.14688 -0.0622,0.26649 -0.18706,0.35863 -0.12419,0.0915 -0.2933,0.13746 -0.50695,0.13746 -0.12352,0 -0.23136,-0.0107 -0.32349,-0.032 -0.0915,-0.022 -0.17723,-0.0498 -0.25735,-0.0832 v -0.3576 h 0.0424 c 0.0795,0.0634 0.16799,0.11219 0.26614,0.14625 0.0988,0.0341 0.19393,0.0512 0.28473,0.0512 0.0234,0 0.0539,-0.002 0.092,-0.006 0.038,-0.004 0.069,-0.0108 0.093,-0.0202 0.0294,-0.012 0.0537,-0.0269 0.0724,-0.045 0.0194,-0.018 0.0289,-0.0447 0.0289,-0.0801 0,-0.0327 -0.0138,-0.0609 -0.0419,-0.0842 -0.0274,-0.024 -0.068,-0.0421 -0.12144,-0.0548 -0.0561,-0.0133 -0.11552,-0.0258 -0.17828,-0.0372 -0.0621,-0.012 -0.12044,-0.0269 -0.17518,-0.045 -0.12553,-0.0407 -0.21589,-0.0959 -0.27131,-0.16537 -0.0547,-0.0701 -0.0822,-0.15696 -0.0822,-0.26045 0,-0.13887 0.0618,-0.25205 0.18603,-0.33951 0.12486,-0.0881 0.28549,-0.13229 0.48111,-0.13229 z m -3.62355,0.0274 h 0.44338 l 0.31058,0.46457 0.31936,-0.46457 h 0.42581 l -0.52089,0.72502 0.52865,0.76584 h -0.44442 l -0.32143,-0.49041 -0.32763,0.49041 h -0.42478 l 0.52917,-0.75086 z m 1.72134,0 h 0.38448 v 1.20251 h 0.69143 v 0.28835 h -1.07591 z" /><rect
         style="fill:#000000;fill-opacity:1;stroke:none;stroke-width:0.264583;stroke-linecap:round;stroke-linejoin:round;stroke-dasharray:none;stroke-opacity:1;paint-order:stroke fill markers"
         id="rect67029"
         width="2.3283331"
         height="0.26458329"
         x="146.84444"
         y="102.15652" /><rect
         style="fill:#000000;fill-opacity:1;stroke:none;stroke-width:0.264583;stroke-linecap:round;stroke-linejoin:round;stroke-dasharray:none;stroke-opacity:1;paint-order:stroke fill markers"
         id="rect67029-6"
         width="3.3072913"
         height="0.26458329"
         x="146.84444"
         y="102.81799" /><rect
         style="fill:#000000;fill-opacity:1;stroke:none;stroke-width:0.264583;stroke-linecap:round;stroke-linejoin:round;stroke-dasharray:none;stroke-opacity:1;paint-order:stroke fill markers"
         id="rect67029-0"
         width="3.3072913"
         height="0.26458329"
         x="146.84444"
         y="103.47944" /></g></g></svg>
