<?xml version="1.0" encoding="UTF-8" standalone="no"?>
<!-- Created with Inkscape (http://www.inkscape.org/) -->

<svg
   width="39.999992"
   height="50"
   viewBox="0 0 10.58333 13.229165"
   version="1.1"
   id="svg43077"
   xml:space="preserve"
   inkscape:version="1.2.2 (732a01da63, 2022-12-09)"
   sodipodi:docname="icon_sql.svg"
   xmlns:inkscape="http://www.inkscape.org/namespaces/inkscape"
   xmlns:sodipodi="http://sodipodi.sourceforge.net/DTD/sodipodi-0.dtd"
   xmlns="http://www.w3.org/2000/svg"
   xmlns:svg="http://www.w3.org/2000/svg"><sodipodi:namedview
     id="namedview43079"
     pagecolor="#ffffff"
     bordercolor="#999999"
     borderopacity="1"
     inkscape:showpageshadow="0"
     inkscape:pageopacity="0"
     inkscape:pagecheckerboard="0"
     inkscape:deskcolor="#d1d1d1"
     inkscape:document-units="px"
     showgrid="false"
     inkscape:zoom="2.8779307"
     inkscape:cx="150.97653"
     inkscape:cy="0"
     inkscape:window-width="1920"
     inkscape:window-height="1017"
     inkscape:window-x="-8"
     inkscape:window-y="-8"
     inkscape:window-maximized="1"
     inkscape:current-layer="layer1"
     showguides="false" /><defs
     id="defs43074" /><g
     inkscape:label="Camada 1"
     inkscape:groupmode="layer"
     id="layer1"
     transform="translate(-118.42188,-75.837151)"><g
       id="g68943"
       transform="matrix(1.7699116,0,0,1.7699116,-17.9939,-29.520226)"><path
         id="rect66129"
         style="fill:#000000;fill-opacity:1;stroke:none;stroke-width:0.22543;stroke-linejoin:bevel;paint-order:stroke fill markers"
         d="m 121.2,75.837148 a 2.7780172,1.0646359 0 0 0 -2.77193,0.994254 2.7781246,1.0646771 0 0 1 -0.006,-0.06046 v 0.130741 3.589445 a 2.7780127,1.0646359 0 0 0 0,5.17e-4 v 1.795756 0.0067 0.01602 h 0.002 a 2.7781246,1.0172945 0 0 0 2.77658,1.001489 2.7781246,1.0172945 0 0 0 2.77657,-1.001489 h 0.002 v -0.01602 a 2.7781246,1.0172945 0 0 0 0,-5.16e-4 2.7781246,1.0172945 0 0 0 0,-5.17e-4 2.7781246,1.0172945 0 0 0 0,-5.17e-4 2.7781246,1.0172945 0 0 0 0,-5.17e-4 2.7781246,1.0172945 0 0 0 0,-5.16e-4 2.7781246,1.0172945 0 0 0 0,-5.17e-4 2.7781246,1.0172945 0 0 0 0,-5.17e-4 2.7781246,1.0172945 0 0 0 0,-5.17e-4 2.7781246,1.0172945 0 0 0 0,-5.16e-4 2.7781246,1.0172945 0 0 0 0,-5.17e-4 2.7781246,1.0172945 0 0 0 0,-5.17e-4 2.7781246,1.0172945 0 0 0 0,-5.17e-4 2.7781246,1.0172945 0 0 0 0,-5.16e-4 v -1.795756 a 2.7780127,1.0646359 0 0 0 0,-5.17e-4 v -3.589445 -0.130741 a 2.7781246,1.0646771 0 0 1 -0.006,0.06046 A 2.7780172,1.0646359 0 0 0 121.2,75.837148 Z m 2.77812,0.933793 v -0.01705 h -5.2e-4 a 2.7781246,1.0646771 0 0 1 5.2e-4,0.01705 z m -5.55625,0 a 2.7781246,1.0646771 0 0 1 0.002,-0.01705 h -0.002 z m 2.76366,-0.625285 a 2.1402936,0.76764064 0 0 1 2.13992,0.767912 2.1402936,0.76764064 0 0 1 -2.13992,0.767912 2.1402936,0.76764064 0 0 1 -2.14044,-0.767912 2.1402936,0.76764064 0 0 1 2.14044,-0.767912 z m 2.17764,1.423169 v 2.922302 h -0.0382 a 2.14029,0.76764064 0 0 1 5.2e-4,0.0124 2.14029,0.76764064 0 0 1 -2.13992,0.767395 2.14029,0.76764064 0 0 1 -2.1022,-0.625801 v -3.054594 a 2.7780172,1.0646359 0 0 0 2.11667,0.375688 2.7780172,1.0646359 0 0 0 2.16317,-0.397392 z m 0,3.589961 v 0.466122 a 2.1456051,1.0173228 0 0 1 0.007,0.08061 2.1456051,1.0173228 0 0 1 -2.14561,1.017509 2.1456051,1.0173228 0 0 1 -2.1456,-1.017509 2.1456051,1.0173228 0 0 1 0.005,-0.07028 2.7781246,1.0172945 0 0 0 -5.2e-4,5.17e-4 v -0.45527 a 2.7780127,1.0646359 0 0 0 2.11667,0.375688 2.7780127,1.0646359 0 0 0 2.16317,-0.397392 z" /><path
         id="path65400-0"
         style="fill:#000000;fill-opacity:1;stroke:none;stroke-width:0.189433;stroke-linejoin:bevel;paint-order:stroke fill markers"
         d="m 118.42187,78.664742 a 2.7780172,1.0646359 0 0 0 0,5.17e-4 2.7780172,1.0646359 0 0 0 2.77813,1.064534 2.7780172,1.0646359 0 0 0 2.77812,-1.064534 2.7780172,1.0646359 0 0 0 0,-5.17e-4 h -0.65319 a 2.1402936,0.76764064 0 0 1 5.2e-4,0.0124 2.1402936,0.76764064 0 0 1 -2.13992,0.767394 2.1402936,0.76764064 0 0 1 -2.14044,-0.767394 2.1402936,0.76764064 0 0 1 0.002,-0.0124 z" /></g><ellipse
       style="fill:#890404;stroke-width:1.32212;stroke-linejoin:bevel;paint-order:stroke fill markers"
       id="path416-6-3"
       cx="191.2309"
       cy="89.553848"
       rx="10.583332"
       ry="2.645833" /><path
       id="rect470"
       style="fill:#000000;fill-opacity:1;stroke-width:0.66106;stroke-linejoin:bevel;paint-order:stroke fill markers"
       d="m 123.71355,75.837151 a 5.2916661,1.3229166 0 0 0 -5.29167,1.322917 v 7.937499 2.645833 a 5.2916661,1.3229166 0 0 0 5.29167,1.322916 5.2916661,1.3229166 0 0 0 5.29166,-1.322916 v -2.645833 -7.937499 a 5.2916661,1.3229166 0 0 0 -5.29166,-1.322917 z m 0,0.396875 a 3.9687496,0.92604157 0 0 1 3.96875,0.926042 3.9687496,0.92604157 0 0 1 -3.96875,0.926041 3.9687496,0.92604157 0 0 1 -3.96875,-0.926041 3.9687496,0.92604157 0 0 1 3.96875,-0.926042 z m -3.96875,1.800923 a 5.2916661,1.3229166 0 0 0 3.96875,0.448035 5.2916661,1.3229166 0 0 0 3.96875,-0.448035 v 1.770952 a 3.9687496,0.92604157 0 0 1 -3.96875,0.926041 3.9687496,0.92604157 0 0 1 -3.96875,-0.926041 z m 0,2.645059 a 5.2916661,1.3229166 0 0 0 3.96875,0.448809 5.2916661,1.3229166 0 0 0 3.96875,-0.448809 v 1.771725 a 3.9687496,0.92604157 0 0 1 -3.96875,0.926042 3.9687496,0.92604157 0 0 1 -3.96875,-0.926042 z m 0,2.645833 a 5.2916661,1.3229166 0 0 0 3.96875,0.448809 5.2916661,1.3229166 0 0 0 3.96875,-0.448809 v 1.771726 a 3.9687496,0.92604157 0 0 1 -3.96875,0.926041 3.9687496,0.92604157 0 0 1 -3.96875,-0.926041 z m 0,2.645832 a 5.2916661,1.3229166 0 0 0 3.96875,0.44881 5.2916661,1.3229166 0 0 0 3.96875,-0.44881 V 87.7434 a 3.9687496,0.92604157 0 0 1 -3.96875,0.926041 3.9687496,0.92604157 0 0 1 -3.96875,-0.926041 z" /><path
       id="rect470-4"
       style="fill:#be6060;fill-opacity:1;stroke-width:1.32212;stroke-linejoin:bevel;paint-order:stroke fill markers"
       d="m 179.6049,78.937752 v 21.166668 h 2.64583 V 78.937752 Z m 18.52083,0 v 21.166668 h 2.64583 V 78.937752 Z" /><path
       id="path416-5-6"
       style="fill:#890404;stroke-width:1.32212;stroke-linejoin:bevel;paint-order:stroke fill markers"
       d="m 190.96968,76.946243 a 10.583332,2.645833 0 0 0 -10.58333,2.645833 10.583332,2.645833 0 0 0 10.58333,2.645833 10.583332,2.645833 0 0 0 10.58333,-2.645833 10.583332,2.645833 0 0 0 -10.58333,-2.645833 z m 0,0.793751 a 7.937499,1.8520831 0 0 1 7.9375,1.852082 7.937499,1.8520831 0 0 1 -7.9375,1.852083 7.937499,1.8520831 0 0 1 -7.9375,-1.852083 7.937499,1.8520831 0 0 1 7.9375,-1.852082 z" /><path
       id="path416-5-3-0"
       style="fill:#890404;stroke-width:1.32212;stroke-linejoin:bevel;paint-order:stroke fill markers"
       d="m 177.30652,92.335255 a 10.583332,2.645833 0 0 0 10.58333,2.645833 10.583332,2.645833 0 0 0 10.58333,-2.645833 h -2.64583 a 7.937499,1.8520831 0 0 1 -7.9375,1.852083 7.937499,1.8520831 0 0 1 -7.9375,-1.852083 z" /></g></svg>
