<?xml version="1.0" encoding="UTF-8" standalone="no"?>
<!-- Created with Inkscape (http://www.inkscape.org/) -->

<svg
   width="25.000025"
   height="34.104053"
   viewBox="0 0 6.6145898 9.0233641"
   version="1.1"
   id="svg17111"
   inkscape:version="1.2.2 (732a01da63, 2022-12-09)"
   sodipodi:docname="process_screen_icon.svg"
   xml:space="preserve"
   xmlns:inkscape="http://www.inkscape.org/namespaces/inkscape"
   xmlns:sodipodi="http://sodipodi.sourceforge.net/DTD/sodipodi-0.dtd"
   xmlns="http://www.w3.org/2000/svg"
   xmlns:svg="http://www.w3.org/2000/svg"><sodipodi:namedview
     id="namedview17113"
     pagecolor="#ffffff"
     bordercolor="#999999"
     borderopacity="1"
     inkscape:showpageshadow="0"
     inkscape:pageopacity="0"
     inkscape:pagecheckerboard="0"
     inkscape:deskcolor="#d1d1d1"
     inkscape:document-units="mm"
     showgrid="false"
     inkscape:zoom="6.359375"
     inkscape:cx="32.157248"
     inkscape:cy="13.208845"
     inkscape:window-width="1920"
     inkscape:window-height="1017"
     inkscape:window-x="-8"
     inkscape:window-y="-8"
     inkscape:window-maximized="1"
     inkscape:current-layer="layer1" /><defs
     id="defs17108"><linearGradient
       id="linearGradient31469"
       inkscape:swatch="solid"><stop
         style="stop-color:#6098bb;stop-opacity:1;"
         offset="0"
         id="stop31467" /></linearGradient></defs><g
     inkscape:label="Camada 1"
     inkscape:groupmode="layer"
     id="layer1"
     transform="translate(-102.37721,-58.991383)"><rect
       style="fill:#4969b2;fill-rule:evenodd;stroke-width:0.79375;stroke-linejoin:bevel;paint-order:stroke fill markers"
       id="rect4525"
       width="0.18818165"
       height="0.031363606"
       x="109.90448"
       y="55.466797"
       rx="1" /><g
       id="g6877"><path
         id="rect4521"
         style="fill:#000000;fill-opacity:1;fill-rule:evenodd;stroke:none;stroke-width:0.529167;stroke-linejoin:bevel;stroke-dasharray:none;stroke-opacity:1;paint-order:stroke fill markers"
         d="m 102.90638,60.077247 c -0.29316,0 -0.52917,0.236009 -0.52917,0.529167 v 6.879167 c 0,0.293157 0.23601,0.529166 0.52917,0.529166 h 5.55625 c 0.29316,0 0.52917,-0.236009 0.52917,-0.529166 v -6.879167 c 0,-0.293158 -0.23601,-0.529167 -0.52917,-0.529167 h -0.89814 v 0.344682 c 0,0.06623 -0.0155,0.128492 -0.0419,0.184485 h 0.3979 c 0.30031,0 0.54209,0.241778 0.54209,0.542086 v 5.794995 c 0,0.300308 -0.24178,0.542086 -0.54209,0.542086 h -4.47207 c -0.30031,0 -0.54209,-0.241778 -0.54209,-0.542086 V 61.1485 c 0,-0.300308 0.24178,-0.542086 0.54209,-0.542086 h 0.62218 c -0.0264,-0.05599 -0.0419,-0.118259 -0.0419,-0.184485 v -0.344682 z" /><circle
         style="fill:none;fill-rule:evenodd;stroke:#000000;stroke-width:0.264583;stroke-linejoin:bevel;stroke-dasharray:none;stroke-opacity:1;paint-order:stroke fill markers"
         id="path5911"
         cx="104.36159"
         cy="62.061623"
         r="0.79374999" /><circle
         style="fill:none;fill-rule:evenodd;stroke:#000000;stroke-width:0.264583;stroke-linejoin:bevel;stroke-dasharray:none;stroke-opacity:1;paint-order:stroke fill markers"
         id="path5911-6"
         cx="104.36159"
         cy="64.178291"
         r="0.79374999" /><circle
         style="fill:none;fill-rule:evenodd;stroke:#000000;stroke-width:0.264583;stroke-linejoin:bevel;stroke-dasharray:none;stroke-opacity:1;paint-order:stroke fill markers"
         id="path5911-66"
         cx="104.36159"
         cy="66.294952"
         r="0.79374999" /><rect
         style="fill:#000000;fill-opacity:1;fill-rule:evenodd;stroke:none;stroke-width:0.441978;stroke-linejoin:bevel;stroke-dasharray:none;stroke-opacity:1;paint-order:stroke fill markers"
         id="rect6674"
         width="2.1166666"
         height="0.39687499"
         x="105.8168"
         y="61.400166"
         rx="0.26259112" /><rect
         style="fill:#000000;fill-opacity:1;fill-rule:evenodd;stroke:none;stroke-width:0.441978;stroke-linejoin:bevel;stroke-dasharray:none;stroke-opacity:1;paint-order:stroke fill markers"
         id="rect6674-1"
         width="2.1166666"
         height="0.39687499"
         x="105.8168"
         y="62.193913"
         rx="0.26259112" /><rect
         style="fill:#000000;fill-opacity:1;fill-rule:evenodd;stroke:none;stroke-width:0.441978;stroke-linejoin:bevel;stroke-dasharray:none;stroke-opacity:1;paint-order:stroke fill markers"
         id="rect6674-3"
         width="2.1166666"
         height="0.39687499"
         x="105.8168"
         y="63.51683"
         rx="0.26259112" /><rect
         style="fill:#000000;fill-opacity:1;fill-rule:evenodd;stroke:none;stroke-width:0.441978;stroke-linejoin:bevel;stroke-dasharray:none;stroke-opacity:1;paint-order:stroke fill markers"
         id="rect6674-4"
         width="2.1166666"
         height="0.39687499"
         x="105.8168"
         y="64.310577"
         rx="0.26259112" /><rect
         style="fill:#000000;fill-opacity:1;fill-rule:evenodd;stroke:none;stroke-width:0.441978;stroke-linejoin:bevel;stroke-dasharray:none;stroke-opacity:1;paint-order:stroke fill markers"
         id="rect6674-5"
         width="2.1166666"
         height="0.39687499"
         x="105.8168"
         y="65.633499"
         rx="0.26259112" /><rect
         style="fill:#000000;fill-opacity:1;fill-rule:evenodd;stroke:none;stroke-width:0.441978;stroke-linejoin:bevel;stroke-dasharray:none;stroke-opacity:1;paint-order:stroke fill markers"
         id="rect6674-7"
         width="2.1166666"
         height="0.39687499"
         x="105.8168"
         y="66.427246"
         rx="0.26259112" /><path
         id="rect6828-4"
         style="fill:none;fill-opacity:1;fill-rule:evenodd;stroke:#000000;stroke-width:0.398647;stroke-linejoin:bevel;stroke-dasharray:none;stroke-opacity:1;paint-order:stroke fill markers"
         d="m 105.71853,59.190783 c -0.41445,0.0068 -0.76343,0.17926 -0.89797,0.41994 h -0.40995 c -0.24199,0 -0.43682,0.162257 -0.43682,0.363805 v 0.537892 c 0,0.201548 0.19483,0.363805 0.43682,0.363805 h 2.69646 c 0.242,0 0.43683,-0.162257 0.43683,-0.363805 v -0.537892 c 0,-0.201548 -0.19483,-0.363805 -0.43683,-0.363805 h -0.43939 c -0.13728,-0.245591 -0.498,-0.41994 -0.92356,-0.41994 -0.008,0 -0.0172,-1.39e-4 -0.0255,0 z" /></g></g></svg>
