<?xml version="1.0" encoding="UTF-8" standalone="no"?>
<!-- Created with Inkscape (http://www.inkscape.org/) -->

<svg
   width="100.00018"
   height="99.999908"
   viewBox="0 0 26.458379 26.458306"
   version="1.1"
   id="svg17111"
   inkscape:version="1.2.2 (732a01da63, 2022-12-09)"
   sodipodi:docname="Profile.svg"
   xml:space="preserve"
   xmlns:inkscape="http://www.inkscape.org/namespaces/inkscape"
   xmlns:sodipodi="http://sodipodi.sourceforge.net/DTD/sodipodi-0.dtd"
   xmlns="http://www.w3.org/2000/svg"
   xmlns:svg="http://www.w3.org/2000/svg"><sodipodi:namedview
     id="namedview17113"
     pagecolor="#ffffff"
     bordercolor="#999999"
     borderopacity="1"
     inkscape:showpageshadow="0"
     inkscape:pageopacity="0"
     inkscape:pagecheckerboard="0"
     inkscape:deskcolor="#d1d1d1"
     inkscape:document-units="mm"
     showgrid="false"
     inkscape:zoom="4"
     inkscape:cx="3.875"
     inkscape:cy="54.25"
     inkscape:window-width="1920"
     inkscape:window-height="1017"
     inkscape:window-x="-8"
     inkscape:window-y="-8"
     inkscape:window-maximized="1"
     inkscape:current-layer="layer1" /><defs
     id="defs17108"><linearGradient
       id="linearGradient31469"
       inkscape:swatch="solid"><stop
         style="stop-color:#6098bb;stop-opacity:1;"
         offset="0"
         id="stop31467" /></linearGradient><clipPath
       clipPathUnits="userSpaceOnUse"
       id="clipPath45575"><rect
         style="fill:#576cd6;fill-opacity:1;fill-rule:evenodd;stroke:none;stroke-width:0.79375;stroke-linecap:round;stroke-linejoin:round;stroke-dasharray:none;stroke-opacity:1;paint-order:stroke fill markers"
         id="rect45577"
         width="31.75"
         height="23.573051"
         x="557.52423"
         y="52.197739"
         rx="26.458334"
         ry="23.8125" /></clipPath></defs><g
     inkscape:label="Camada 1"
     inkscape:groupmode="layer"
     id="layer1"
     transform="translate(-85.430848,-57.839094)"><ellipse
       style="fill:#3791b6;fill-opacity:1;fill-rule:evenodd;stroke:#131112;stroke-width:0.645326;stroke-linecap:round;stroke-linejoin:round;stroke-dasharray:none;stroke-opacity:1;paint-order:stroke fill markers"
       id="path45535"
       cx="98.576866"
       cy="66.916664"
       rx="6.4536271"
       ry="6.4528875" /><path
       id="path8678"
       style="fill:none;fill-opacity:1;fill-rule:evenodd;stroke:#131112;stroke-width:0.645326;stroke-linecap:round;stroke-linejoin:round;stroke-dasharray:none;stroke-opacity:1;paint-order:stroke fill markers"
       d="M 98.660059,58.162611 A 12.907254,12.905775 0 0 0 85.752663,71.068509 12.907254,12.905775 0 0 0 89.441746,80.0897 c 0.0097,-0.01034 0.01866,-0.02029 0.02843,-0.03066 0.07348,-0.07804 0.149125,-0.156926 0.227433,-0.236948 0.07831,-0.08002 0.156539,-0.15897 0.234671,-0.236429 0.07813,-0.07746 0.156206,-0.153187 0.234153,-0.228114 0.07795,-0.07493 0.15588,-0.148935 0.233638,-0.221361 0.07776,-0.07243 0.155559,-0.14361 0.23312,-0.213565 0.07756,-0.06995 0.15473,-0.138777 0.232086,-0.206291 0.07736,-0.06751 0.154424,-0.133392 0.231568,-0.198497 0.07714,-0.06511 0.154644,-0.129016 0.23157,-0.191741 0.07693,-0.06273 0.153317,-0.124609 0.230018,-0.184986 0.0767,-0.06037 0.153549,-0.119653 0.230019,-0.177711 0.07647,-0.05806 0.152754,-0.114667 0.228985,-0.170437 0.07623,-0.05577 0.152482,-0.110689 0.228467,-0.1642 0.07599,-0.05351 0.151701,-0.105642 0.227434,-0.156927 0.07573,-0.05128 0.151444,-0.101602 0.226917,-0.150691 0.07547,-0.04909 0.150676,-0.09701 0.225883,-0.143935 0.07521,-0.04693 0.150432,-0.09291 0.225366,-0.137701 0.07494,-0.04479 0.149678,-0.08827 0.224333,-0.130946 0.07466,-0.04269 0.148931,-0.08463 0.223299,-0.125229 0.07437,-0.0406 0.148708,-0.07991 0.222783,-0.118474 0.07408,-0.03856 0.147973,-0.07621 0.221748,-0.112758 0.07378,-0.03655 0.147246,-0.07196 0.220714,-0.106523 0.07347,-0.03457 0.147044,-0.0682 0.220198,-0.100807 0.07316,-0.03262 0.146331,-0.06439 0.219163,-0.09509 0.07283,-0.03069 0.145108,-0.06057 0.217612,-0.08937 0.07251,-0.0288 0.144926,-0.05672 0.217097,-0.08366 0.07217,-0.02694 0.144233,-0.05283 0.216062,-0.07795 0.07183,-0.02511 0.143548,-0.04943 0.215029,-0.07275 0.142961,-0.04663 0.285427,-0.08926 0.426955,-0.128867 0.141528,-0.03961 0.282265,-0.07577 0.422304,-0.108601 0.140039,-0.03283 0.279156,-0.06255 0.417651,-0.08886 0.138496,-0.02631 0.276102,-0.0496 0.413,-0.06963 0.136898,-0.02002 0.273103,-0.03694 0.408347,-0.05092 0.135245,-0.01399 0.269642,-0.02507 0.403179,-0.03325 0.133537,-0.0081 0.266235,-0.01347 0.39801,-0.01611 0.131773,-0.0026 0.262366,-0.0021 0.392323,5.2e-4 0.129956,0.0027 0.25907,0.0078 0.387154,0.01559 0.128085,0.0077 0.255312,0.01758 0.381469,0.03014 0.126158,0.01256 0.251607,0.02756 0.375783,0.04469 0.124173,0.01713 0.246923,0.03673 0.369063,0.0582 0.12214,0.02146 0.24332,0.04512 0.36337,0.07067 0.12005,0.02555 0.23927,0.05271 0.35718,0.0821 0.1179,0.02939 0.23475,0.06106 0.35045,0.09406 0.11571,0.03299 0.23029,0.06758 0.34374,0.103924 0.11345,0.03635 0.22588,0.07434 0.33702,0.113798 0.11113,0.03946 0.221,0.0803 0.32978,0.122631 0.10877,0.04232 0.21618,0.086 0.32254,0.130946 0.10635,0.04495 0.21143,0.09089 0.3153,0.138219 0.10388,0.04733 0.20672,0.09604 0.30808,0.145495 0.10135,0.04946 0.20103,0.09986 0.2998,0.15121 0.0987,0.05135 0.19644,0.10341 0.29256,0.156408 0.0961,0.05299 0.19086,0.107203 0.28429,0.161602 0.0934,0.0544 0.18534,0.109163 0.27602,0.164722 0.0907,0.05555 0.18039,0.111885 0.26827,0.168357 0.0879,0.05647 0.17394,0.113295 0.25897,0.170437 0.085,0.05714 0.16858,0.114427 0.25069,0.171996 0.0821,0.05757 0.16277,0.115284 0.24191,0.173034 0.0791,0.05775 0.157,0.115347 0.23312,0.173035 0.0761,0.05769 0.15077,0.115653 0.22382,0.173034 0.14607,0.114765 0.28575,0.228281 0.41919,0.340354 0.13346,0.112075 0.26059,0.222529 0.38096,0.329961 0.12037,0.107432 0.23429,0.211977 0.34115,0.312815 0.10685,0.100837 0.20689,0.198179 0.2998,0.290469 0.0929,0.09229 0.17838,0.17958 0.2569,0.26137 0.0785,0.08179 0.14979,0.15774 0.21347,0.227076 0.005,0.0055 0.008,0.0096 0.0134,0.01507 A 12.907254,12.905775 0 0 0 111.5674,71.068525 12.907254,12.905775 0 0 0 98.66001,58.162627 Z" /><path
       id="path43179-5"
       style="fill:#3791b6;fill-opacity:1;fill-rule:evenodd;stroke:#131112;stroke-width:0.645326;stroke-linecap:round;stroke-linejoin:round;stroke-dasharray:none;stroke-opacity:1;paint-order:stroke fill markers"
       d="m 107.94661,80.021628 c -0.005,-0.0054 -0.008,-0.0096 -0.0134,-0.01507 -0.0637,-0.06934 -0.13495,-0.145285 -0.21347,-0.227076 -0.0785,-0.08179 -0.16399,-0.16908 -0.2569,-0.26137 -0.0929,-0.09229 -0.19295,-0.189632 -0.2998,-0.290469 -0.10686,-0.100838 -0.22078,-0.205383 -0.34115,-0.312815 -0.12037,-0.107432 -0.2475,-0.217886 -0.38096,-0.329961 -0.13344,-0.112073 -0.27312,-0.225589 -0.41919,-0.340354 -0.073,-0.05739 -0.1477,-0.115345 -0.22382,-0.173034 -0.0761,-0.05769 -0.15398,-0.115284 -0.23312,-0.173035 -0.0791,-0.05775 -0.1598,-0.115467 -0.24191,-0.173034 -0.0821,-0.05757 -0.16567,-0.114853 -0.25069,-0.171996 -0.085,-0.05714 -0.17109,-0.113964 -0.25897,-0.170437 -0.0879,-0.05647 -0.17758,-0.1128 -0.26827,-0.168357 -0.0907,-0.05556 -0.18258,-0.110321 -0.27602,-0.164722 -0.0934,-0.0544 -0.18817,-0.108606 -0.28429,-0.161602 -0.0961,-0.053 -0.1938,-0.105056 -0.29256,-0.156408 -0.0987,-0.05135 -0.19845,-0.101749 -0.2998,-0.15121 -0.10136,-0.04946 -0.2042,-0.09817 -0.30808,-0.145495 -0.10387,-0.04733 -0.20895,-0.09327 -0.3153,-0.138219 -0.10636,-0.04495 -0.21377,-0.08862 -0.32254,-0.130946 -0.10878,-0.04232 -0.21865,-0.08318 -0.32978,-0.122631 -0.11114,-0.03946 -0.22357,-0.07746 -0.33702,-0.113798 -0.11345,-0.03635 -0.22803,-0.07093 -0.34374,-0.103924 -0.1157,-0.03299 -0.23255,-0.06466 -0.35045,-0.09406 -0.11791,-0.02939 -0.23713,-0.05655 -0.35718,-0.0821 -0.12005,-0.02555 -0.24123,-0.04921 -0.36337,-0.07067 -0.12214,-0.02146 -0.24489,-0.04107 -0.369064,-0.0582 -0.124176,-0.01713 -0.249625,-0.03213 -0.375783,-0.04469 -0.126157,-0.01256 -0.253384,-0.0224 -0.381469,-0.03014 -0.128084,-0.0077 -0.257198,-0.01291 -0.387154,-0.01559 -0.129957,-0.0027 -0.26055,-0.0031 -0.392323,-5.2e-4 -0.131775,0.0026 -0.264473,0.0079 -0.39801,0.01611 -0.133537,0.0081 -0.267934,0.01928 -0.403179,0.03325 -0.135244,0.01398 -0.271449,0.0309 -0.408347,0.05092 -0.136898,0.02002 -0.274504,0.04333 -0.413,0.06963 -0.138495,0.02631 -0.277612,0.05602 -0.417651,0.08886 -0.140039,0.03283 -0.280776,0.069 -0.422304,0.108601 -0.141528,0.03961 -0.283994,0.08224 -0.426955,0.128867 -0.07148,0.02331 -0.1432,0.04763 -0.215029,0.07275 -0.07183,0.02511 -0.143891,0.051 -0.216062,0.07795 -0.07217,0.02694 -0.144591,0.05485 -0.217097,0.08366 -0.07251,0.0288 -0.144779,0.05868 -0.217612,0.08937 -0.07283,0.0307 -0.14601,0.06247 -0.219163,0.09509 -0.07315,0.03262 -0.146731,0.06623 -0.220198,0.100807 -0.07347,0.03457 -0.14694,0.06997 -0.220714,0.106523 -0.07378,0.03655 -0.147674,0.0742 -0.221748,0.112758 -0.07408,0.03856 -0.148414,0.07787 -0.222783,0.118474 -0.07437,0.0406 -0.148644,0.08254 -0.223299,0.125229 -0.07466,0.04269 -0.149397,0.08616 -0.224332,0.130946 -0.07494,0.04479 -0.150159,0.09078 -0.225367,0.137701 -0.07521,0.04692 -0.150409,0.09484 -0.225883,0.143935 -0.07547,0.04909 -0.151184,0.09941 -0.226917,0.150691 -0.07573,0.05128 -0.151449,0.103414 -0.227434,0.156927 -0.07599,0.05351 -0.152237,0.108431 -0.228467,0.1642 -0.07623,0.05577 -0.152516,0.11238 -0.228985,0.170437 -0.07647,0.05806 -0.153317,0.117336 -0.230019,0.177711 -0.0767,0.06037 -0.153091,0.122262 -0.230018,0.184986 -0.07693,0.06273 -0.154425,0.126637 -0.23157,0.191741 -0.07715,0.06511 -0.154213,0.130983 -0.231568,0.198497 -0.07736,0.06751 -0.154527,0.136336 -0.232086,0.206291 -0.07756,0.06995 -0.155363,0.14114 -0.23312,0.213565 -0.07776,0.07243 -0.155689,0.146433 -0.233638,0.221361 -0.07795,0.07492 -0.15602,0.150655 -0.234153,0.228114 -0.07813,0.07746 -0.156361,0.156407 -0.234671,0.236429 -0.07831,0.08002 -0.153957,0.158908 -0.227433,0.236948 -0.0098,0.01037 -0.01875,0.02032 -0.02843,0.03066 a 12.907254,12.905775 0 0 0 9.218313,3.884188 12.907254,12.905775 0 0 0 9.286552,-3.95226 z" /></g></svg>
