<?xml version="1.0" encoding="UTF-8" standalone="no"?>
<!-- Created with Inkscape (http://www.inkscape.org/) -->

<svg
   width="100.00018"
   height="99.999908"
   viewBox="0 0 26.458379 26.458306"
   version="1.1"
   id="svg17111"
   inkscape:version="1.2.2 (732a01da63, 2022-12-09)"
   sodipodi:docname="Profile.svg"
   xml:space="preserve"
   xmlns:inkscape="http://www.inkscape.org/namespaces/inkscape"
   xmlns:sodipodi="http://sodipodi.sourceforge.net/DTD/sodipodi-0.dtd"
   xmlns="http://www.w3.org/2000/svg"
   xmlns:svg="http://www.w3.org/2000/svg"><sodipodi:namedview
     id="namedview17113"
     pagecolor="#ffffff"
     bordercolor="#999999"
     borderopacity="1"
     inkscape:showpageshadow="0"
     inkscape:pageopacity="0"
     inkscape:pagecheckerboard="0"
     inkscape:deskcolor="#d1d1d1"
     inkscape:document-units="mm"
     showgrid="false"
     inkscape:zoom="4"
     inkscape:cx="33.625"
     inkscape:cy="54.25"
     inkscape:window-width="1920"
     inkscape:window-height="1017"
     inkscape:window-x="-8"
     inkscape:window-y="-8"
     inkscape:window-maximized="1"
     inkscape:current-layer="layer1" /><defs
     id="defs17108"><linearGradient
       id="linearGradient31469"
       inkscape:swatch="solid"><stop
         style="stop-color:#6098bb;stop-opacity:1;"
         offset="0"
         id="stop31467" /></linearGradient><clipPath
       clipPathUnits="userSpaceOnUse"
       id="clipPath45575"><rect
         style="fill:#576cd6;fill-opacity:1;fill-rule:evenodd;stroke:none;stroke-width:0.79375;stroke-linecap:round;stroke-linejoin:round;stroke-dasharray:none;stroke-opacity:1;paint-order:stroke fill markers"
         id="rect45577"
         width="31.75"
         height="23.573051"
         x="557.52423"
         y="52.197739"
         rx="26.458334"
         ry="23.8125" /></clipPath></defs><g
     inkscape:label="Camada 1"
     inkscape:groupmode="layer"
     id="layer1"
     transform="translate(-85.430848,-57.839094)"><g
       id="g15139"
       transform="matrix(1.0002537,0,0,1.0055336,-0.02081933,-0.32091182)"><ellipse
         style="fill:#576cd6;fill-opacity:1;fill-rule:evenodd;stroke:#131112;stroke-width:0.643466;stroke-linecap:round;stroke-linejoin:round;stroke-dasharray:none;stroke-opacity:1;paint-order:stroke fill markers"
         id="path45535"
         cx="98.572678"
         cy="66.867561"
         rx="6.4519901"
         ry="6.4173765" /><path
         id="path8678"
         style="fill:none;fill-opacity:1;fill-rule:evenodd;stroke:#131112;stroke-width:0.643466;stroke-linecap:round;stroke-linejoin:round;stroke-dasharray:none;stroke-opacity:1;paint-order:stroke fill markers"
         d="M 98.655849,58.161679 A 12.90398,12.834753 0 0 0 85.751727,70.996554 12.90398,12.834753 0 0 0 89.439874,79.9681 c 0.0097,-0.01028 0.01866,-0.02018 0.02842,-0.03049 0.07346,-0.07761 0.149087,-0.156062 0.227376,-0.235644 0.07829,-0.07958 0.156499,-0.158095 0.234611,-0.235128 0.07811,-0.07703 0.156166,-0.152344 0.234094,-0.226859 0.07793,-0.07452 0.15584,-0.148115 0.233578,-0.220142 0.07774,-0.07203 0.15552,-0.14282 0.233061,-0.21239 0.07754,-0.06957 0.154691,-0.138013 0.232027,-0.205156 0.07734,-0.06714 0.154385,-0.132658 0.23151,-0.197404 0.07712,-0.06475 0.154604,-0.128306 0.231511,-0.190686 0.07691,-0.06238 0.153278,-0.123924 0.22996,-0.183968 0.07668,-0.06004 0.15351,-0.118995 0.22996,-0.176733 0.07645,-0.05774 0.152715,-0.114036 0.228927,-0.169499 0.07621,-0.05546 0.152443,-0.11008 0.228409,-0.163297 0.07597,-0.05322 0.151663,-0.10506 0.227377,-0.156063 0.07571,-0.051 0.151405,-0.101043 0.226859,-0.149862 0.07545,-0.04882 0.150638,-0.09648 0.225826,-0.143143 0.07519,-0.04667 0.150394,-0.0924 0.225309,-0.136943 0.07492,-0.04454 0.14964,-0.08778 0.224276,-0.130225 0.07464,-0.04245 0.148893,-0.08416 0.223242,-0.12454 0.07435,-0.04038 0.14867,-0.07947 0.222726,-0.117822 0.07406,-0.03835 0.147936,-0.07579 0.221692,-0.112138 0.07376,-0.03635 0.147209,-0.07156 0.220658,-0.105937 0.07345,-0.03438 0.147007,-0.06782 0.220142,-0.100252 0.07314,-0.03244 0.146294,-0.06404 0.219108,-0.09457 0.07281,-0.03052 0.145071,-0.06024 0.217557,-0.08888 0.07249,-0.02864 0.144889,-0.05641 0.217042,-0.0832 0.07215,-0.02679 0.144196,-0.05254 0.216007,-0.07752 0.07181,-0.02497 0.143511,-0.04916 0.214974,-0.07235 0.142925,-0.04637 0.285355,-0.08877 0.426847,-0.128158 0.141492,-0.03939 0.282193,-0.07535 0.422197,-0.108003 0.140003,-0.03265 0.279085,-0.06221 0.417545,-0.08837 0.138461,-0.02616 0.276032,-0.04933 0.412895,-0.06925 0.136863,-0.01991 0.273034,-0.03674 0.408244,-0.05064 0.13521,-0.01391 0.269573,-0.02493 0.403076,-0.03307 0.133503,-0.0081 0.266168,-0.0134 0.397909,-0.01602 0.13174,-0.0026 0.2623,-0.0021 0.392224,5.17e-4 0.129923,0.0027 0.259004,0.0078 0.387056,0.0155 0.128052,0.0077 0.255247,0.01748 0.381372,0.02997 0.126126,0.01249 0.251543,0.02741 0.375688,0.04444 0.124144,0.01704 0.246864,0.03653 0.368974,0.05788 0.12211,0.02134 0.24326,0.04487 0.36328,0.07028 0.12002,0.02541 0.23921,0.05242 0.35709,0.08165 0.11787,0.02923 0.23469,0.06072 0.35036,0.09354 0.11568,0.03281 0.23023,0.06721 0.34365,0.103352 0.11342,0.03615 0.22582,0.07393 0.33693,0.113172 0.11111,0.03924 0.22095,0.07986 0.3297,0.121956 0.10874,0.04209 0.21613,0.08553 0.32246,0.130225 0.10632,0.0447 0.21137,0.09039 0.31522,0.137459 0.10385,0.04707 0.20667,0.09551 0.308,0.144694 0.10132,0.04919 0.20098,0.09931 0.29972,0.150378 0.0987,0.05107 0.19639,0.102841 0.29249,0.155547 0.0961,0.0527 0.19081,0.106613 0.28422,0.160713 0.0934,0.0541 0.18529,0.108562 0.27595,0.163815 0.0907,0.05525 0.18034,0.11127 0.2682,0.167431 0.0879,0.05616 0.1739,0.112671 0.2589,0.169499 0.085,0.05683 0.16854,0.113797 0.25063,0.171049 0.0821,0.05725 0.16273,0.11465 0.24185,0.172082 0.0791,0.05743 0.15696,0.114712 0.23306,0.172083 0.0761,0.05737 0.15073,0.115016 0.22376,0.172082 0.14604,0.114133 0.28568,0.227024 0.41909,0.338481 0.13342,0.111458 0.26052,0.221304 0.38086,0.328145 0.12034,0.106841 0.23423,0.21081 0.34106,0.311093 0.10683,0.100282 0.20684,0.197089 0.29973,0.288871 0.0929,0.09178 0.17833,0.178592 0.25683,0.259932 0.0785,0.08134 0.14975,0.156871 0.21342,0.225826 0.005,0.0055 0.008,0.0095 0.0134,0.01499 a 12.90398,12.834753 0 0 0 3.61993,-8.903849 12.90398,12.834753 0 0 0 -12.904123,-12.834875 z" /><path
         id="path43179-5"
         style="fill:#576cd6;fill-opacity:1;fill-rule:evenodd;stroke:#131112;stroke-width:0.643466;stroke-linecap:round;stroke-linejoin:round;stroke-dasharray:none;stroke-opacity:1;paint-order:stroke fill markers"
         d="m 107.94004,79.900403 c -0.005,-0.0054 -0.008,-0.0095 -0.0134,-0.01499 -0.0637,-0.06896 -0.13492,-0.144486 -0.21342,-0.225826 -0.0785,-0.08134 -0.16395,-0.16815 -0.25683,-0.259932 -0.0929,-0.09178 -0.1929,-0.188589 -0.29973,-0.288871 -0.10683,-0.100283 -0.22072,-0.204252 -0.34106,-0.311093 -0.12034,-0.106841 -0.24744,-0.216687 -0.38086,-0.328145 -0.13341,-0.111457 -0.27305,-0.224348 -0.41909,-0.338481 -0.073,-0.05707 -0.14766,-0.114711 -0.22376,-0.172082 -0.0761,-0.05737 -0.15394,-0.11465 -0.23306,-0.172083 -0.0791,-0.05743 -0.15976,-0.114831 -0.24185,-0.172082 -0.0821,-0.05725 -0.16563,-0.114221 -0.25063,-0.171049 -0.085,-0.05683 -0.17104,-0.113337 -0.2589,-0.169499 -0.0879,-0.05616 -0.17754,-0.112179 -0.2682,-0.167431 -0.0907,-0.05525 -0.18254,-0.109714 -0.27595,-0.163815 -0.0934,-0.0541 -0.18812,-0.108008 -0.28422,-0.160713 -0.0961,-0.05271 -0.19375,-0.104478 -0.29249,-0.155547 -0.0987,-0.05107 -0.1984,-0.101189 -0.29972,-0.150378 -0.10133,-0.04919 -0.20415,-0.09763 -0.308,-0.144694 -0.10385,-0.04707 -0.2089,-0.09276 -0.31522,-0.137459 -0.10633,-0.0447 -0.21372,-0.08813 -0.32246,-0.130225 -0.10875,-0.04209 -0.21859,-0.08272 -0.3297,-0.121956 -0.11111,-0.03924 -0.22351,-0.07703 -0.33693,-0.113172 -0.11342,-0.03615 -0.22797,-0.07054 -0.34365,-0.103352 -0.11567,-0.03281 -0.23249,-0.0643 -0.35036,-0.09354 -0.11788,-0.02923 -0.23707,-0.05624 -0.35709,-0.08165 -0.12002,-0.02541 -0.24117,-0.04894 -0.36328,-0.07028 -0.12211,-0.02134 -0.24483,-0.04084 -0.368972,-0.05788 -0.124145,-0.01704 -0.249562,-0.03195 -0.375688,-0.04444 -0.126125,-0.01249 -0.25332,-0.02228 -0.381372,-0.02997 -0.128052,-0.0077 -0.257133,-0.01284 -0.387056,-0.0155 -0.129924,-0.0027 -0.260484,-0.0031 -0.392224,-5.17e-4 -0.131741,0.0026 -0.264406,0.0079 -0.397909,0.01602 -0.133503,0.0081 -0.267866,0.01917 -0.403076,0.03307 -0.13521,0.0139 -0.271381,0.03073 -0.408244,0.05064 -0.136863,0.01991 -0.274434,0.04309 -0.412895,0.06925 -0.13846,0.02616 -0.277542,0.05571 -0.417545,0.08837 -0.140004,0.03265 -0.280705,0.06862 -0.422197,0.108003 -0.141492,0.03939 -0.283922,0.08179 -0.426847,0.128158 -0.07146,0.02318 -0.143163,0.04737 -0.214974,0.07235 -0.07181,0.02497 -0.143855,0.05072 -0.216007,0.07752 -0.07215,0.02679 -0.144555,0.05455 -0.217042,0.0832 -0.07249,0.02864 -0.144743,0.05836 -0.217557,0.08888 -0.07281,0.03053 -0.145973,0.06213 -0.219108,0.09457 -0.07313,0.03244 -0.146693,0.06587 -0.220142,0.100252 -0.07345,0.03438 -0.146902,0.06959 -0.220658,0.105937 -0.07376,0.03635 -0.147636,0.07379 -0.221692,0.112138 -0.07406,0.03835 -0.148376,0.07744 -0.222726,0.117822 -0.07435,0.04038 -0.148606,0.08209 -0.223242,0.12454 -0.07464,0.04245 -0.14936,0.08568 -0.224276,0.130225 -0.07492,0.04454 -0.15012,0.09028 -0.225309,0.136943 -0.07519,0.04666 -0.150371,0.09432 -0.225826,0.143143 -0.07545,0.04882 -0.151146,0.09886 -0.226859,0.149862 -0.07571,0.051 -0.151411,0.102845 -0.227377,0.156063 -0.07597,0.05322 -0.152198,0.107835 -0.228409,0.163297 -0.07621,0.05546 -0.152477,0.111761 -0.228927,0.169499 -0.07645,0.05774 -0.153278,0.11669 -0.22996,0.176733 -0.07668,0.06004 -0.153053,0.121589 -0.22996,0.183968 -0.07691,0.06238 -0.154386,0.12594 -0.231511,0.190686 -0.07713,0.06475 -0.154174,0.130262 -0.23151,0.197404 -0.07734,0.06714 -0.154487,0.135586 -0.232027,0.205156 -0.07754,0.06957 -0.155323,0.140363 -0.233061,0.21239 -0.07774,0.07203 -0.155649,0.145627 -0.233578,0.220142 -0.07793,0.07451 -0.155981,0.149826 -0.234094,0.226859 -0.07811,0.07703 -0.156321,0.155546 -0.234611,0.235128 -0.07829,0.07958 -0.153918,0.158034 -0.227376,0.235644 -0.0098,0.01031 -0.01875,0.02021 -0.02842,0.03049 a 12.90398,12.834753 0 0 0 9.215975,3.862813 12.90398,12.834753 0 0 0 9.284189,-3.93051 z" /></g></g></svg>
