<?xml version="1.0" encoding="UTF-8" standalone="no"?>
<!-- Created with Inkscape (http://www.inkscape.org/) -->

<svg
   width="34.999599"
   height="26.958088"
   viewBox="0 0 9.2603095 7.13266"
   version="1.1"
   id="svg43077"
   xml:space="preserve"
   inkscape:version="1.2.2 (732a01da63, 2022-12-09)"
   sodipodi:docname="R_logo.svg"
   xmlns:inkscape="http://www.inkscape.org/namespaces/inkscape"
   xmlns:sodipodi="http://sodipodi.sourceforge.net/DTD/sodipodi-0.dtd"
   xmlns="http://www.w3.org/2000/svg"
   xmlns:svg="http://www.w3.org/2000/svg"><sodipodi:namedview
     id="namedview43079"
     pagecolor="#ffffff"
     bordercolor="#999999"
     borderopacity="1"
     inkscape:showpageshadow="0"
     inkscape:pageopacity="0"
     inkscape:pagecheckerboard="0"
     inkscape:deskcolor="#d1d1d1"
     inkscape:document-units="px"
     showgrid="false"
     inkscape:zoom="3.9999998"
     inkscape:cx="-52.750003"
     inkscape:cy="-26.750001"
     inkscape:window-width="1920"
     inkscape:window-height="1017"
     inkscape:window-x="-8"
     inkscape:window-y="-8"
     inkscape:window-maximized="1"
     inkscape:current-layer="layer1" /><defs
     id="defs43074"><filter
       id="mask-powermask-path-effect8147_inverse"
       inkscape:label="filtermask-powermask-path-effect8147"
       style="color-interpolation-filters:sRGB"
       height="100"
       width="100"
       x="-50"
       y="-50"><feColorMatrix
         id="mask-powermask-path-effect8147_primitive1"
         values="1"
         type="saturate"
         result="fbSourceGraphic" /><feColorMatrix
         id="mask-powermask-path-effect8147_primitive2"
         values="-1 0 0 0 1 0 -1 0 0 1 0 0 -1 0 1 0 0 0 1 0 "
         in="fbSourceGraphic" /></filter><clipPath
       clipPathUnits="userSpaceOnUse"
       id="clipPath8341"><path
         style="fill:#008080;fill-opacity:1;stroke:#008080;stroke-width:0.264583;stroke-linecap:butt;stroke-linejoin:miter;stroke-dasharray:none"
         d="m 1.4707866,6.0199638 5.153454,-3.1582006 5.1876584,3.1582006 0.09121,3.5116457 -10.3867186,-0.07981 z"
         id="path8343" /></clipPath><clipPath
       clipPathUnits="userSpaceOnUse"
       id="clipPath8341-0"><path
         style="fill:#008080;fill-opacity:1;stroke:#008080;stroke-width:0.264583;stroke-linecap:butt;stroke-linejoin:miter;stroke-dasharray:none"
         d="m 1.4707866,6.0199638 5.153454,-3.1582006 5.1876584,3.1582006 0.09121,3.5116457 -10.3867186,-0.07981 z"
         id="path8343-8" /></clipPath></defs><g
     inkscape:label="Camada 1"
     inkscape:groupmode="layer"
     id="layer1"
     transform="translate(-139.90113,-102.09515)"><path
       style="fill:#394251;fill-opacity:1;stroke-width:0.0201485"
       d="m 143.72649,108.73422 v -0.49364 h -0.0186 -0.0186 l -0.29071,-0.0493 -0.29071,-0.0492 -0.20957,-0.0531 -0.20957,-0.0531 -0.23272,-0.0778 -0.23272,-0.0778 -0.24853,-0.1111 -0.24854,-0.11108 -0.21801,-0.12478 -0.218,-0.12478 -0.19483,-0.14598 -0.19483,-0.14598 -0.19087,-0.18859 -0.19088,-0.18858 -0.1295,-0.17126 -0.1295,-0.17127 -0.10974,-0.22163 -0.10973,-0.22163 -0.0507,-0.17778 -0.0507,-0.17778 -0.0189,-0.20018 -0.0189,-0.20018 0.0183,-0.19394 0.0183,-0.19394 0.0328,-0.1333 0.0328,-0.1333 0.07,-0.17126 0.07,-0.17126 0.0926,-0.15598 0.0926,-0.15597 0.13426,-0.1664 0.13425,-0.1664 0.15464,-0.14647 0.15463,-0.14647 0.18589,-0.13728 0.18591,-0.13728 0.15242,-0.092 0.15243,-0.092 0.20017,-0.0999 0.20017,-0.0999 0.14104,-0.0562 0.14104,-0.0562 0.20149,-0.0689 0.20148,-0.069 0.27827,-0.0685 0.27827,-0.0685 0.27581,-0.0409 0.27582,-0.0409 0.25982,-0.0202 0.25982,-0.0202 h 0.23592 0.23594 l 0.25981,0.0202 0.25982,0.0202 0.27582,0.0409 0.27581,0.0409 0.27827,0.0685 0.27827,0.0685 0.272,0.0937 0.27201,0.0937 0.30306,0.14729 0.30307,0.1473 0.24095,0.16108 0.24094,0.16108 0.17126,0.14992 0.17126,0.14992 0.10304,0.11294 0.10303,0.11294 0.0947,0.12592 0.0947,0.12592 0.0788,0.135 0.0788,0.13499 0.0676,0.16862 0.0676,0.16862 0.0343,0.13788 0.0343,0.13787 0.0171,0.1845 0.0171,0.1845 -0.0158,0.18134 -0.0158,0.18134 -0.0319,0.13574 -0.0319,0.13575 -0.0604,0.1564 -0.0604,0.15641 -0.0865,0.15161 -0.0865,0.15161 -0.11464,0.15232 -0.11464,0.15232 -0.21732,0.20992 -0.21733,0.20992 -0.17629,0.12724 -0.1763,0.12724 v 0.009 0.009 l 0.51587,0.86965 0.51587,0.86965 0.0102,0.0267 0.0103,0.0266 -0.88158,-0.005 -0.88158,-0.005 -0.23052,-0.43319 -0.23053,-0.4332 -0.0882,-0.16295 -0.0882,-0.16295 -0.2675,0.0672 -0.2675,0.0672 -0.28732,0.0445 -0.28731,0.0445 v 0.48945 0.48945 h -0.78579 -0.78579 z m 2.21129,-1.21192 0.16623,-0.0126 v -0.0147 -0.0147 l -0.0814,-0.10223 -0.0814,-0.10222 -0.0671,-0.0414 -0.0671,-0.0414 h -0.25452 -0.25451 v 0.18429 0.1843 l 0.23674,-0.0133 0.23675,-0.0133 z m -2.21129,-1.84058 v -1.65217 h 1.6384 1.6384 l 0.11956,0.0212 0.11955,0.0212 0.13096,0.0421 0.13097,0.0421 0.13097,0.0661 0.13096,0.066 0.11964,0.0973 0.11965,0.0974 0.0958,0.14069 0.0958,0.14068 0.0548,0.16154 0.0548,0.16154 0.009,0.26333 0.009,0.26332 -0.033,0.15938 -0.033,0.15937 -0.0829,0.17168 -0.0829,0.17168 -0.15329,0.15303 -0.1533,0.15303 -0.15111,0.0834 -0.15112,0.0834 -0.15111,0.0494 -0.15112,0.0494 -0.12029,0.0238 -0.1203,0.0238 0.18074,0.0649 0.18074,0.0649 0.10205,0.0521 0.10204,0.0521 0.0994,-0.0545 0.0994,-0.0545 0.12617,-0.0859 0.12617,-0.0859 0.1314,-0.12293 0.13141,-0.12292 0.11271,-0.16939 0.11271,-0.16938 0.0563,-0.14501 0.0562,-0.145 0.0343,-0.16929 0.0343,-0.16929 -0.0105,-0.28405 -0.0105,-0.28405 -0.0344,-0.13097 -0.0344,-0.13096 -0.0851,-0.18134 -0.0851,-0.18134 -0.1221,-0.15111 -0.12211,-0.15111 -0.12814,-0.10245 -0.12812,-0.10245 -0.0907,-0.0611 -0.0907,-0.0611 -0.14566,-0.0732 -0.14565,-0.0732 -0.15657,-0.0622 -0.15658,-0.0622 -0.26458,-0.0678 -0.26456,-0.0678 -0.27944,-0.043 -0.27944,-0.043 -0.56415,-0.0106 -0.56416,-0.0106 -0.27201,0.0333 -0.272,0.0333 -0.20149,0.0408 -0.20148,0.0408 -0.21156,0.0613 -0.21156,0.0613 -0.20148,0.0797 -0.20149,0.0797 -0.17126,0.0922 -0.17126,0.0922 -0.17905,0.12237 -0.17904,0.12238 -0.15585,0.15438 -0.15584,0.15438 -0.0857,0.1262 -0.0857,0.12619 -0.0665,0.14382 -0.0665,0.14381 -0.0345,0.17018 -0.0345,0.17018 0.0118,0.16701 0.0118,0.16701 0.0586,0.17011 0.0586,0.17011 0.0975,0.15728 0.0975,0.15728 0.18235,0.18175 0.18235,0.18174 0.18134,0.12241 0.18134,0.1224 0.13096,0.0719 0.13097,0.0719 0.13096,0.0552 0.13097,0.0551 0.18133,0.0665 0.18134,0.0665 0.0353,0.001 0.0353,10e-4 v -1.65219 z m 2.77075,0.2921 0.11822,-0.0605 0.0479,-0.0931 0.0479,-0.0931 -4.6e-4,-0.14191 -4.6e-4,-0.14192 -0.0286,-0.0671 -0.0286,-0.0671 -0.0482,-0.0444 -0.0482,-0.0444 -0.0803,-0.0357 -0.0803,-0.0357 -0.54905,-0.007 -0.54904,-0.007 v 0.45648 0.45649 l 0.54047,-0.006 0.54047,-0.006 0.11822,-0.0605 z"
       id="path18653-8" /></g></svg>
